<?xml version="1.0" encoding="utf-8"?>
<!-- Generator: Adobe Illustrator 23.0.1, SVG Export Plug-In . SVG Version: 6.00 Build 0)  -->
<svg version="1.1" id="图层_1" xmlns="http://www.w3.org/2000/svg" xmlns:xlink="http://www.w3.org/1999/xlink" x="0px" y="0px"
	 viewBox="0 0 24 24" style="enable-background:new 0 0 24 24;" xml:space="preserve">
<style type="text/css">
	.st0{fill:#FF8500;}
	.st1{fill:#666666;}
</style>
<path class="st0" d="M-86.9,4.5h5.2c0.4,0,0.6,0.2,0.6,0.6v5.2c0,0.4-0.2,0.6-0.6,0.6h-5.2c-0.4,0-0.6-0.2-0.6-0.6V5.1
	C-87.5,4.7-87.3,4.5-86.9,4.5z"/>
<path class="st0" d="M-79.2,4.5h5.2c0.4,0,0.6,0.2,0.6,0.6v5.2c0,0.4-0.2,0.6-0.6,0.6h-5.2c-0.4,0-0.6-0.2-0.6-0.6V5.1
	C-79.8,4.7-79.6,4.5-79.2,4.5z"/>
<path class="st0" d="M-86.9,12.2h5.2c0.4,0,0.6,0.2,0.6,0.6V18c0,0.4-0.2,0.6-0.6,0.6h-5.2c-0.4,0-0.6-0.2-0.6-0.6v-5.2
	C-87.5,12.4-87.3,12.2-86.9,12.2z"/>
<path class="st0" d="M-76.3,11.4l3.6,3.6c0.3,0.3,0.3,0.6,0,0.8l-3.6,3.6c-0.3,0.3-0.6,0.3-0.8,0l-3.6-3.6c-0.3-0.3-0.3-0.6,0-0.8
	l3.6-3.6C-76.8,11.1-76.5,11.1-76.3,11.4z"/>
<path class="st0" d="M-46,4.4c-3,0-5.4,2.4-5.4,5.3c0,0,0,0.1,0,0.1c0,2.5,3.6,7.5,5,9.5c0.2,0.2,0.5,0.2,0.7,0c0,0,0,0,0,0
	c1.4-1.9,5-7,5-9.5l0-0.1C-40.6,6.8-43,4.4-46,4.4z M-46,12.2c-1.4,0-2.6-1.1-2.6-2.6s1.2-2.6,2.6-2.6c1.4,0,2.6,1.1,2.6,2.6
	S-44.6,12.2-46,12.2z"/>
<path class="st1" d="M10.4,7.6h6.3c0.4,0,0.8-0.4,0.8-0.8C17.4,6.4,17,6,16.6,6h-6.3C9.9,6,9.6,6.4,9.6,6.8
	C9.6,7.2,9.9,7.6,10.4,7.6z M10.4,12.6h8.3c0.4,0,0.8-0.4,0.8-0.8c0-0.4-0.3-0.8-0.8-0.8c0,0,0,0,0,0h-8.3c-0.4,0-0.8,0.4-0.8,0.8
	C9.6,12.2,9.9,12.5,10.4,12.6z M10.4,17.5h6.3c0.4,0,0.8-0.4,0.8-0.8c0-0.4-0.4-0.8-0.8-0.8h-6.3c-0.4,0-0.8,0.4-0.8,0.8
	C9.6,17.1,9.9,17.4,10.4,17.5z M1.8,7.6h5.3c0.4,0,0.8-0.4,0.8-0.8C7.8,6.4,7.5,6,7.1,6H1.8C1.3,6,1,6.4,1,6.8
	C1,7.2,1.3,7.6,1.8,7.6L1.8,7.6z M7.9,17.3c0-0.4-0.4-0.8-0.8-0.8H1.8c-0.4,0-0.8,0.4-0.8,0.8C1,17.7,1.3,18,1.8,18h5.3
	C7.5,18,7.9,17.7,7.9,17.3z"/>
<path class="st1" d="M19.6,0.8H7.1c-1.9,0-3.4,1.5-3.4,3.4c0,0,0,0,0,0C3.7,4.6,4,5,4.5,5c0.4,0,0.8-0.4,0.8-0.8
	c0-1,0.8-1.8,1.8-1.8h12.5c1,0,1.8,0.8,1.8,1.8v15.6c0,1-0.8,1.8-1.8,1.8H7.1c-1,0-1.8-0.8-1.8-1.8c0-0.4-0.4-0.8-0.8-0.8
	c-0.4,0-0.8,0.4-0.8,0.8c0,1.9,1.5,3.4,3.4,3.4c0,0,0,0,0,0h12.5c1.9,0,3.4-1.5,3.4-3.4c0,0,0,0,0,0V4.2C23,2.3,21.4,0.8,19.6,0.8z"
	/>
<path class="st1" d="M3.7,9.9v4.2c0,0.4,0.4,0.8,0.8,0.8c0.4,0,0.8-0.4,0.8-0.8V9.9c0-0.4-0.4-0.8-0.8-0.8C4,9.2,3.7,9.5,3.7,9.9z"
	/>
</svg>
