<?xml version="1.0" encoding="utf-8"?>
<!-- Generator: Adobe Illustrator 23.0.1, SVG Export Plug-In . SVG Version: 6.00 Build 0)  -->
<svg version="1.1" id="图层_1" xmlns="http://www.w3.org/2000/svg" xmlns:xlink="http://www.w3.org/1999/xlink" x="0px" y="0px"
	 viewBox="0 0 16 16" style="enable-background:new 0 0 16 16;" xml:space="preserve">
<style type="text/css">
	.st0{fill:#666666;}
	.st1{fill:none;stroke:#FFFFFF;stroke-linecap:round;stroke-linejoin:round;stroke-miterlimit:10;}
</style>
<path class="st0" d="M-15.2,13.9c-3.8,0-6.9-3.1-6.9-6.9c0-3.8,3.1-6.9,6.9-6.9S-8.3,3.2-8.3,7C-8.3,10.8-11.4,13.9-15.2,13.9z
	 M-15.2,1.2C-18.4,1.2-21,3.8-21,7s2.6,5.8,5.8,5.8s5.8-2.6,5.8-5.8S-12,1.2-15.2,1.2z"/>
<path class="st0" d="M-6.8,15.9c-0.1,0-0.3-0.1-0.4-0.2l-3.6-3.6c-0.2-0.2-0.2-0.6,0-0.8c0.2-0.2,0.6-0.2,0.8,0l3.6,3.6
	c0.2,0.2,0.2,0.6,0,0.8C-6.5,15.8-6.7,15.9-6.8,15.9z"/>
<path class="st0" d="M13.5,15.8h-11c-0.4,0-0.7-0.3-0.7-0.7V0.9c0-0.4,0.3-0.7,0.7-0.7h11c0.4,0,0.7,0.3,0.7,0.7v14.2
	C14.2,15.5,13.9,15.8,13.5,15.8z"/>
<line class="st1" x1="4.1" y1="4.2" x2="11.9" y2="4.2"/>
<line class="st1" x1="4.1" y1="7.7" x2="11.9" y2="7.7"/>
<line class="st1" x1="4.1" y1="11.3" x2="11.9" y2="11.3"/>
</svg>
