<?xml version="1.0" encoding="utf-8"?>
<!-- Generator: Adobe Illustrator 23.0.1, SVG Export Plug-In . SVG Version: 6.00 Build 0)  -->
<svg version="1.1" id="图层_1" xmlns="http://www.w3.org/2000/svg" xmlns:xlink="http://www.w3.org/1999/xlink" x="0px" y="0px"
	 viewBox="0 0 16 16" style="enable-background:new 0 0 16 16;" xml:space="preserve">
<style type="text/css">
	.st0{fill:#666666;}
</style>
<path class="st0" d="M1.1,0.5h5.2C6.8,0.5,7,0.7,7,1.1v5.2c0,0.4-0.2,0.6-0.6,0.6H1.1c-0.4,0-0.6-0.2-0.6-0.6V1.1
	C0.5,0.7,0.7,0.5,1.1,0.5z"/>
<path class="st0" d="M8.8,0.5h5.2c0.4,0,0.6,0.2,0.6,0.6v5.2c0,0.4-0.2,0.6-0.6,0.6H8.8c-0.4,0-0.6-0.2-0.6-0.6V1.1
	C8.2,0.7,8.4,0.5,8.8,0.5z"/>
<path class="st0" d="M1.1,8.2h5.2C6.8,8.2,7,8.4,7,8.8V14c0,0.4-0.2,0.6-0.6,0.6H1.1c-0.4,0-0.6-0.2-0.6-0.6V8.8
	C0.5,8.4,0.7,8.2,1.1,8.2z"/>
<path class="st0" d="M11.7,7.4l3.6,3.6c0.3,0.3,0.3,0.6,0,0.8l-3.6,3.6c-0.3,0.3-0.6,0.3-0.8,0l-3.6-3.6C7,11.5,7,11.2,7.3,11
	l3.6-3.6C11.2,7.1,11.5,7.1,11.7,7.4z"/>
</svg>
