<svg id="图层_1" data-name="图层 1" xmlns="http://www.w3.org/2000/svg" viewBox="0 0 22 22"><defs><style>.cls-1{fill:#ccd2db;}</style></defs><title>tuichu</title><path class="cls-1" d="M12.66,13a.92.92,0,0,0,1-1V2.58a1,1,0,1,0-1.93,0V12A.93.93,0,0,0,12.66,13Z" transform="translate(-1.495 -1.505)"/><path class="cls-1" d="M22.14,8.62a10,10,0,0,0-2.51-3.47h0a1,1,0,0,0-1.26.09h0a1,1,0,0,0,.09,1.26h0a8.47,8.47,0,0,1,2.82,6.37,8.69,8.69,0,0,1-8.69,8.69,8.46,8.46,0,0,1-3.37-.68A8.69,8.69,0,0,1,6.43,19,8.62,8.62,0,0,1,6.48,6.73h0a.89.89,0,0,0,0-1.28,1,1,0,0,0-.64-.27.91.91,0,0,0-.64.27A10.86,10.86,0,0,0,2.92,8.83,11.7,11.7,0,0,0,2,12.88H2a10.46,10.46,0,0,0,3.09,7.42A10.54,10.54,0,0,0,22.14,8.62Z" transform="translate(-1.495 -1.505)"/></svg>