<?xml version="1.0" encoding="utf-8"?>
<!-- Generator: Adobe Illustrator 23.0.1, SVG Export Plug-In . SVG Version: 6.00 Build 0)  -->
<svg version="1.1" id="图层_1" xmlns="http://www.w3.org/2000/svg" xmlns:xlink="http://www.w3.org/1999/xlink" x="0px" y="0px"
	 viewBox="0 0 16 16" style="enable-background:new 0 0 16 16;" xml:space="preserve">
<style type="text/css">
	.st0{fill:#FF8500;}
</style>
<path class="st0" d="M7,13.9c-3.8,0-6.9-3.1-6.9-6.9c0-3.8,3.1-6.9,6.9-6.9s6.9,3.1,6.9,6.9C13.9,10.8,10.8,13.9,7,13.9z M7,1.2
	C3.8,1.2,1.2,3.8,1.2,7s2.6,5.8,5.8,5.8s5.8-2.6,5.8-5.8S10.2,1.2,7,1.2z"/>
<path class="st0" d="M15.4,15.9c-0.1,0-0.3-0.1-0.4-0.2l-3.6-3.6c-0.2-0.2-0.2-0.6,0-0.8c0.2-0.2,0.6-0.2,0.8,0l3.6,3.6
	c0.2,0.2,0.2,0.6,0,0.8C15.7,15.8,15.5,15.9,15.4,15.9z"/>
</svg>
