<?xml version="1.0" encoding="utf-8"?>
<!-- Generator: Adobe Illustrator 23.0.1, SVG Export Plug-In . SVG Version: 6.00 Build 0)  -->
<svg version="1.1" id="图层_1" xmlns="http://www.w3.org/2000/svg" xmlns:xlink="http://www.w3.org/1999/xlink" x="0px" y="0px"
	 viewBox="0 0 32 32" style="enable-background:new 0 0 32 32;" xml:space="preserve">
<style type="text/css">
	.st0{fill:#FF8500;}
	.st1{fill:#666666;}
	.st2{fill:#CBD4E1;}
</style>
<path class="st0" d="M-444.8,8.5h5.2c0.4,0,0.6,0.2,0.6,0.6v5.2c0,0.4-0.2,0.6-0.6,0.6h-5.2c-0.4,0-0.6-0.2-0.6-0.6V9.1
	C-445.4,8.7-445.2,8.5-444.8,8.5z"/>
<path class="st0" d="M-437.1,8.5h5.2c0.4,0,0.6,0.2,0.6,0.6v5.2c0,0.4-0.2,0.6-0.6,0.6h-5.2c-0.4,0-0.6-0.2-0.6-0.6V9.1
	C-437.6,8.7-437.4,8.5-437.1,8.5z"/>
<path class="st0" d="M-444.8,16.2h5.2c0.4,0,0.6,0.2,0.6,0.6V22c0,0.4-0.2,0.6-0.6,0.6h-5.2c-0.4,0-0.6-0.2-0.6-0.6v-5.2
	C-445.4,16.4-445.2,16.2-444.8,16.2z"/>
<path class="st0" d="M-434.2,15.4l3.6,3.6c0.3,0.3,0.3,0.6,0,0.8l-3.6,3.6c-0.3,0.3-0.6,0.3-0.8,0l-3.6-3.6c-0.3-0.3-0.3-0.6,0-0.8
	l3.6-3.6C-434.7,15.1-434.4,15.1-434.2,15.4z"/>
<path class="st0" d="M-403.9,8.4c-3,0-5.4,2.4-5.4,5.3c0,0,0,0.1,0,0.1c0,2.5,3.6,7.5,5,9.5c0.2,0.2,0.5,0.2,0.7,0c0,0,0,0,0,0
	c1.4-1.9,5-7,5-9.5l0-0.1C-398.5,10.8-400.9,8.4-403.9,8.4z M-403.9,16.2c-1.4,0-2.6-1.1-2.6-2.6s1.2-2.6,2.6-2.6
	c1.4,0,2.6,1.1,2.6,2.6S-402.5,16.2-403.9,16.2z"/>
<path class="st1" d="M-347.5,11.6h6.3c0.4,0,0.8-0.4,0.8-0.8c0-0.4-0.4-0.8-0.8-0.8h-6.3c-0.4,0-0.8,0.4-0.8,0.8
	C-348.3,11.2-348,11.6-347.5,11.6z M-347.5,16.6h8.3c0.4,0,0.8-0.4,0.8-0.8c0-0.4-0.3-0.8-0.8-0.8c0,0,0,0,0,0h-8.3
	c-0.4,0-0.8,0.4-0.8,0.8C-348.3,16.2-348,16.5-347.5,16.6z M-347.5,21.5h6.3c0.4,0,0.8-0.4,0.8-0.8c0-0.4-0.4-0.8-0.8-0.8h-6.3
	c-0.4,0-0.8,0.4-0.8,0.8C-348.3,21.1-348,21.4-347.5,21.5z M-356.1,11.6h5.3c0.4,0,0.8-0.4,0.8-0.8c0-0.4-0.4-0.8-0.8-0.8h-5.3
	c-0.4,0-0.8,0.4-0.8,0.8C-356.9,11.2-356.6,11.6-356.1,11.6L-356.1,11.6z M-350,21.3c0-0.4-0.4-0.8-0.8-0.8h-5.4
	c-0.4,0-0.8,0.4-0.8,0.8c0,0.4,0.4,0.8,0.8,0.8h5.3C-350.4,22-350,21.7-350,21.3z"/>
<path class="st1" d="M-338.3,4.8h-12.5c-1.9,0-3.4,1.5-3.4,3.4c0,0,0,0,0,0c0,0.4,0.4,0.8,0.8,0.8c0.4,0,0.8-0.4,0.8-0.8
	c0-1,0.8-1.8,1.8-1.8h12.5c1,0,1.8,0.8,1.8,1.8v15.6c0,1-0.8,1.8-1.8,1.8h-12.5c-1,0-1.8-0.8-1.8-1.8c0-0.4-0.4-0.8-0.8-0.8
	c-0.4,0-0.8,0.4-0.8,0.8c0,1.9,1.5,3.4,3.4,3.4c0,0,0,0,0,0h12.5c1.9,0,3.4-1.5,3.4-3.4c0,0,0,0,0,0V8.2
	C-334.9,6.3-336.5,4.8-338.3,4.8z"/>
<path class="st1" d="M-354.2,13.9v4.2c0,0.4,0.4,0.8,0.8,0.8c0.4,0,0.8-0.4,0.8-0.8v-4.2c0-0.4-0.4-0.8-0.8-0.8
	C-353.9,13.2-354.2,13.5-354.2,13.9z"/>
<path class="st1" d="M-293.5,21.1h-3.7c-0.3,0-0.6-0.3-0.6-0.6c0-0.3,0.3-0.6,0.6-0.6h3.2V10c0-0.3-0.3-0.6-0.6-0.6h-9.3
	c-0.3,0-0.6,0.3-0.6,0.6c0,0.3-0.3,0.6-0.6,0.6h-1.4c-0.3,0-0.6-0.3-0.6-0.6c0-0.3,0.2-0.6,0.6-0.6h0.9c0.2-0.7,0.9-1.2,1.6-1.2h9.3
	c1,0,1.7,0.8,1.7,1.8v10.5C-292.9,20.8-293.1,21.1-293.5,21.1z M-301.2,21.1h-2.6c-1,0-1.7-0.8-1.7-1.8c0-0.3,0.3-0.6,0.6-0.6
	c0.3,0,0.6,0.3,0.6,0.6s0.3,0.6,0.6,0.6h2.6c0.3,0,0.6,0.3,0.6,0.6C-300.7,20.8-300.9,21.1-301.2,21.1z"/>
<path class="st1" d="M-287,21.1h-0.8c-0.3,0-0.6-0.3-0.6-0.6c0-0.3,0.3-0.6,0.6-0.6h0.8v-3.6l-2.2-3.3h-3.6v7h0.9
	c0.3,0,0.6,0.3,0.6,0.6c0,0.3-0.3,0.6-0.6,0.6h-1.5c-0.3,0-0.6-0.3-0.6-0.6v-8.2c0-0.3,0.3-0.6,0.6-0.6h4.1c0.4,0,0.7,0.2,1,0.5
	l2.2,3.3c0.1,0.2,0.2,0.4,0.2,0.7v3.7C-285.9,20.5-286.4,21.1-287,21.1z M-299.2,23.1c-1.4,0-2.6-1.2-2.6-2.6c0-1.4,1.2-2.6,2.6-2.6
	s2.6,1.2,2.6,2.6C-296.6,21.9-297.8,23.1-299.2,23.1z M-299.2,19.1c-0.8,0-1.5,0.7-1.5,1.5s0.7,1.5,1.5,1.5c0.8,0,1.5-0.7,1.5-1.5
	C-297.8,19.7-298.4,19.1-299.2,19.1z"/>
<path class="st1" d="M-289.8,23.1c-1.4,0-2.6-1.2-2.6-2.6c0-1.4,1.2-2.6,2.6-2.6c1.4,0,2.6,1.2,2.6,2.6
	C-287.2,21.9-288.4,23.1-289.8,23.1z M-289.8,19.1c-0.8,0-1.5,0.7-1.5,1.5s0.7,1.5,1.5,1.5s1.5-0.7,1.5-1.5S-289,19.1-289.8,19.1z
	 M-303.2,12.7h-2.7c-0.3,0-0.6-0.3-0.6-0.6c0-0.3,0.3-0.6,0.6-0.6h2.7c0.3,0,0.6,0.3,0.6,0.6C-302.6,12.4-302.9,12.7-303.2,12.7z
	 M-304.5,17.3h-2.7c-0.3,0-0.6-0.3-0.6-0.6c0-0.3,0.3-0.6,0.6-0.6h2.7c0.3,0,0.6,0.3,0.6,0.6C-303.9,17.1-304.1,17.3-304.5,17.3z
	 M-300.6,14.8h-7.9c-0.3,0-0.6-0.3-0.6-0.6c0-0.3,0.3-0.6,0.6-0.6h7.9c0.3,0,0.6,0.3,0.6,0.6C-300.1,14.5-300.3,14.8-300.6,14.8z
	 M-287.7,15h-3.5c-0.3,0-0.6-0.3-0.6-0.6c0-0.3,0.3-0.6,0.6-0.6h3.5c0.3,0,0.6,0.3,0.6,0.6C-287.1,14.7-287.3,15-287.7,15z"/>
<path class="st1" d="M-240.7,27.4h-16.6c-1.6,0-2.9-1.3-2.9-2.9V7.6c0-1.6,1.3-2.9,2.9-2.9h16.6c1.6,0,2.9,1.3,2.9,2.9v16.9
	C-237.8,26-239.1,27.4-240.7,27.4z M-257.4,6.3c-0.7,0-1.3,0.6-1.3,1.3v16.9c0,0.7,0.6,1.3,1.3,1.3h16.6c0.7,0,1.3-0.6,1.3-1.3V7.6
	c0-0.7-0.6-1.3-1.3-1.3C-240.7,6.3-257.4,6.3-257.4,6.3z"/>
<path class="st1" d="M-255.9,10.3c0,0.5,0.4,0.9,0.9,0.9c0.5,0,0.9-0.4,0.9-0.9c0-0.5-0.4-0.9-0.9-0.9S-255.9,9.8-255.9,10.3z
	 M-242.1,11.1h-10.7c-0.5,0-0.8-0.4-0.8-0.8s0.4-0.8,0.8-0.8h10.7c0.5,0,0.8,0.4,0.8,0.8S-241.6,11.1-242.1,11.1z M-255.9,15.9
	c0,0.5,0.4,0.9,0.9,0.9c0.5,0,0.9-0.4,0.9-0.9c0-0.5-0.4-0.9-0.9-0.9C-255.5,15-255.9,15.4-255.9,15.9z M-242.1,16.8h-10.7
	c-0.5,0-0.8-0.4-0.8-0.8c0-0.5,0.4-0.8,0.8-0.8h10.7c0.5,0,0.8,0.4,0.8,0.8C-241.3,16.4-241.6,16.8-242.1,16.8z M-255.9,21.6
	c0,0.5,0.4,0.9,0.9,0.9c0.5,0,0.9-0.4,0.9-0.9c0-0.5-0.4-0.9-0.9-0.9S-255.9,21.1-255.9,21.6z M-242.1,22.4h-10.7
	c-0.5,0-0.8-0.4-0.8-0.8c0-0.5,0.4-0.8,0.8-0.8h10.7c0.5,0,0.8,0.4,0.8,0.8C-241.3,22-241.6,22.4-242.1,22.4z"/>
<path class="st1" d="M-192.1,25h-15.9c-2,0-3.6-1.4-3.6-3.2v-8.9c0-0.4,0.3-0.6,0.7-0.6c0.4,0,0.7,0.3,0.7,0.6v8.9
	c0,1.1,1,1.9,2.2,1.9h15.9c1.2,0,2.2-0.9,2.2-1.9v-8.9c0-0.4,0.3-0.6,0.7-0.6c0.4,0,0.7,0.3,0.7,0.6v8.9
	C-188.5,23.6-190.1,25-192.1,25L-192.1,25z"/>
<path class="st1" d="M-200,18.1l-2.6-2.3c0.7-0.3,1.1-1,1.1-1.7V11h2.9v3.2c0,0.7,0.5,1.3,1.1,1.7L-200,18.1z M-200,19.7
	c0.2,0,0.4-0.1,0.5-0.2l4.7-4.2c0.3-0.2,0.2-0.5-0.2-0.5h-1.4c-0.4,0-0.7-0.3-0.7-0.6v-3.8c0-0.4-0.3-0.6-0.7-0.6h-4.3
	c-0.4,0-0.7,0.3-0.7,0.6v3.8c0,0.4-0.3,0.6-0.7,0.6h-1.4c-0.4,0-0.5,0.2-0.2,0.5l4.7,4.2C-200.4,19.6-200.2,19.7-200,19.7z
	 M-202.9,7.8c0-0.4,0.3-0.6,0.7-0.6c0.4,0,0.7,0.3,0.7,0.6c0,0.4-0.3,0.6-0.7,0.6c0,0,0,0,0,0C-202.6,8.4-202.9,8.1-202.9,7.8
	C-202.9,7.8-202.9,7.8-202.9,7.8z M-198.6,7.8c0-0.4,0.3-0.6,0.7-0.6c0.4,0,0.7,0.3,0.7,0.6c0,0.4-0.3,0.6-0.7,0.6c0,0,0,0,0,0
	C-198.2,8.4-198.6,8.1-198.6,7.8C-198.6,7.8-198.6,7.8-198.6,7.8z"/>
<path class="st1" d="M-202.2,7.2h4.3v1.3h-4.3V7.2z"/>
<path class="st2" d="M-122.6,0.6h-5c-0.4,0-0.6,0.5-0.6,0.5l-1.6,2.6c0,0-0.1,0.2-0.2,0.2c0,0-0.2,0-0.2,0h-11.6c0,0-0.1,0-0.1,0
	c0,0-0.1-0.1-0.1-0.1l-1.6-2.7c0,0-0.2-0.5-0.6-0.5h-4.9c-0.8,0-1.4,0.6-1.4,1.4v27.9c0,0.8,0.6,1.4,1.4,1.4c0,0,0,0,0,0h26.6
	c0.8,0,1.4-0.6,1.4-1.4c0,0,0,0,0,0V2C-121.2,1.2-121.8,0.6-122.6,0.6z M-127.5,23.8c0,0.2-0.2,0.4-0.4,0.4c0,0,0,0,0,0h-15.9
	c-0.2,0-0.4-0.2-0.4-0.4v-0.3c0-0.2,0.2-0.4,0.4-0.4c0,0,0,0,0,0h15.9c0.2,0,0.4,0.2,0.4,0.4c0,0,0,0,0,0
	C-127.5,23.5-127.5,23.8-127.5,23.8z M-127.5,18c0,0.2-0.2,0.4-0.4,0.4c0,0,0,0,0,0h-15.9c-0.2,0-0.4-0.2-0.4-0.4v-0.3
	c0-0.2,0.2-0.4,0.4-0.4c0,0,0,0,0,0h15.9c0.2,0,0.4,0.2,0.4,0.4c0,0,0,0,0,0C-127.5,17.7-127.5,18-127.5,18z M-127.5,12.2
	c0,0.2-0.2,0.4-0.4,0.4c0,0,0,0,0,0h-15.9c-0.2,0-0.4-0.2-0.4-0.4l0,0v-0.3c0-0.2,0.2-0.4,0.4-0.4l0,0h15.9c0.2,0,0.4,0.2,0.4,0.4
	c0,0,0,0,0,0C-127.5,11.9-127.5,12.2-127.5,12.2z"/>
<path class="st2" d="M-140.3,1.7h8.9c0.2,0,0.4-0.2,0.4-0.4c0,0,0,0,0,0V1c0-0.2-0.2-0.4-0.4-0.4l0,0h-8.9c-0.2,0-0.4,0.2-0.4,0.4
	l0,0v0.3C-140.7,1.5-140.5,1.7-140.3,1.7C-140.3,1.7-140.3,1.7-140.3,1.7z"/>
<path class="st2" d="M-80.3,7h-25.5l-2.6,6.9c0,2.1,1.7,3.8,3.8,3.8c2.1,0,3.9-1.7,3.9-3.8c0,2.1,1.7,3.8,3.8,3.8S-93,16.1-93,14
	c0,2.1,1.7,3.8,3.8,3.8s3.8-1.7,3.8-3.8c0,2.1,1.7,3.8,3.9,3.8c2.1,0,3.9-1.7,3.9-3.8C-77.6,14-80.3,7-80.3,7z"/>
<path class="st2" d="M-82.4,18.9v8.8h-21.2v-8.8h-2.2v9.3c0,0.8,0.9,1.8,1.7,1.8h22.2c0.8,0,1.7-1,1.7-1.8v-9.3
	C-80.2,18.9-82.4,18.9-82.4,18.9z"/>
<path class="st2" d="M-80.3,7L-80.3,7L-80.3,7z"/>
<path class="st2" d="M-104,5.2h22.1c0.8,0,1.3-0.6,1.3-1.3s-0.6-1.3-1.3-1.3H-104c-0.8,0-1.3,0.6-1.3,1.3S-104.8,5.2-104,5.2z"/>
<path class="st2" d="M-40.7,5.3h10c0.7,0,1.3-0.5,1.3-1.2V1.8h-3.8V1.4c0-0.4-0.4-0.7-0.8-0.7h-3.4c-0.4,0-0.8,0.3-0.8,0.7v0.4H-42
	v2.3C-42,4.8-41.4,5.3-40.7,5.3z"/>
<path class="st2" d="M-24,1.9h-3.4v3.6c0,1-0.8,1.8-1.8,1.8h-13.5c-1,0-1.8-0.8-1.8-1.8V1.9h-3.4c-0.5,0-0.8,0.4-0.8,0.8l0,0v27.6
	c0,0.5,0.4,0.8,0.8,0.8c0,0,0,0,0,0H-24c0.5,0,0.8-0.4,0.8-0.8c0,0,0,0,0,0v-26c0-0.6,0-1.1,0-1.6C-23.2,2.3-23.5,1.9-24,1.9z
	 M-36.4,22.8c-0.5,0.5-1.3,0.5-1.7,0l-3.5-3.5c-0.5-0.5-0.5-1.2,0-1.7c0.5-0.5,1.3-0.5,1.7,0l2.6,2.6L-32,15c0.5-0.5,1.3-0.5,1.7,0
	c0.5,0.5,0.5,1.3,0,1.7L-36.4,22.8L-36.4,22.8z"/>
<path class="st2" d="M12.8,1.9h6.4v7.6h-6.4V1.9z"/>
<path class="st2" d="M19.2,10.6h-6.4c-0.6,0-1.2-0.5-1.2-1.2V1.9c0-0.6,0.5-1.2,1.2-1.2h6.4c0.6,0,1.2,0.5,1.2,1.2v7.6
	C20.3,10,19.8,10.6,19.2,10.6z M13.9,8.3H18V3h-4.1C13.9,3,13.9,8.3,13.9,8.3z M12.8,22.6h6.4v7.6h-6.4V22.6z"/>
<path class="st2" d="M19.2,31.3h-6.4c-0.6,0-1.2-0.5-1.2-1.2v-7.6c0-0.6,0.5-1.2,1.2-1.2h6.4c0.6,0,1.2,0.5,1.2,1.2v7.6
	C20.3,30.8,19.8,31.3,19.2,31.3z M13.9,29H18v-5.3h-4.1C13.9,23.7,13.9,29,13.9,29z"/>
<path class="st2" d="M2.1,11.7l3.2-5.5l6.5,3.8l-3.2,5.5L2.1,11.7z"/>
<path class="st2" d="M8.7,16.6c-0.2,0-0.4-0.1-0.5-0.1l-6.6-3.8c-0.5-0.3-0.8-1-0.4-1.6l3.2-5.5c0.3-0.6,1-0.8,1.6-0.5l6.6,3.8
	c0.3,0.1,0.5,0.4,0.5,0.7c0.1,0.3,0.1,0.6-0.1,0.9L9.8,16C9.5,16.4,9.1,16.6,8.7,16.6z M3.7,11.3l4.5,2.6l2.1-3.5L5.8,7.8
	C5.8,7.8,3.7,11.3,3.7,11.3z"/>
<path class="st2" d="M20.1,22.1l3.2-5.5l6.5,3.8l-3.2,5.5L20.1,22.1z"/>
<path class="st2" d="M26.7,27c-0.2,0-0.4-0.1-0.5-0.1l-6.6-3.8C19.2,23,19,22.7,19,22.4c-0.1-0.3-0.1-0.6,0.1-0.9l3.2-5.5
	c0.3-0.5,1-0.8,1.6-0.4l6.6,3.8c0.5,0.3,0.8,1,0.4,1.6l-3.2,5.5c-0.1,0.3-0.4,0.5-0.7,0.5C27,27,26.7,27,26.7,27z M21.7,21.6
	l4.5,2.6l2.1-3.5l-4.5-2.6C23.8,18.1,21.7,21.6,21.7,21.6z"/>
<path class="st2" d="M5.3,25.8l-3.2-5.5l6.5-3.8l3.2,5.5L5.3,25.8z"/>
<path class="st2" d="M5.3,27c-0.4,0-0.8-0.2-1-0.5L1.1,21c-0.3-0.6-0.1-1.3,0.5-1.6l6.6-3.8c0.5-0.3,1.2-0.1,1.6,0.4l3.2,5.5
	c0.1,0.3,0.2,0.5,0.1,0.9c-0.1,0.3-0.3,0.5-0.5,0.7l-6.6,3.8C5.7,26.9,5.5,27,5.3,27z M3.7,20.8l2.1,3.5l4.5-2.6l-2.1-3.5
	C8.2,18.1,3.7,20.8,3.7,20.8z"/>
<path class="st2" d="M23.3,15.5l-3.2-5.5l6.5-3.8l3.2,5.5L23.3,15.5z"/>
<path class="st2" d="M23.3,16.6c-0.4,0-0.8-0.2-1-0.5l-3.2-5.5C19,10.3,18.9,10,19,9.7C19,9.4,19.2,9.1,19.5,9l6.6-3.8
	C26.4,5.1,26.7,5,27,5.1c0.3,0.1,0.5,0.3,0.7,0.5l3.2,5.5c0.3,0.5,0.1,1.2-0.4,1.6l-6.6,3.8C23.7,16.6,23.5,16.6,23.3,16.6z
	 M21.7,10.4l2.1,3.5l4.5-2.6l-2.1-3.5C26.2,7.8,21.7,10.4,21.7,10.4z"/>
<path class="st2" d="M16,4.3C9.6,4.3,4.3,9.6,4.3,16.1S9.5,27.8,16,27.8s11.7-5.2,11.7-11.7S22.5,4.3,16,4.3z M16,21.2
	c-2.9,0-5.2-2.3-5.2-5.2s2.3-5.2,5.2-5.2s5.2,2.3,5.2,5.2S18.8,21.2,16,21.2z"/>
</svg>
