<svg id="图层_1" data-name="图层 1" xmlns="http://www.w3.org/2000/svg" viewBox="0 0 24.98 24.82"><defs><style>.cls-1{fill:#ccd2db;}</style></defs><title>tongzhi-3</title><path class="cls-1" d="M24,20.07H21.48V11.71a8.94,8.94,0,0,0-8-8.9V1.09a1,1,0,1,0-1.95,0V2.81A8.68,8.68,0,0,0,9,3.46,8.94,8.94,0,0,0,4.28,8.22a8.89,8.89,0,0,0-.71,3.49v8.36H1A1,1,0,0,0,1,22H24a1,1,0,0,0,0-1.95ZM5.52,11.71a7,7,0,0,1,7-7h0a7,7,0,0,1,7,7v8.34h-14V11.71Z" transform="translate(-0.04 -0.11)"/><path class="cls-1" d="M14.15,23H10.9a.63.63,0,0,0-.44,1.09,3,3,0,0,0,4.13,0A.63.63,0,0,0,14.15,23Z" transform="translate(-0.04 -0.11)"/></svg>