<?xml version="1.0" encoding="utf-8"?>
<!-- Generator: Adobe Illustrator 23.0.1, SVG Export Plug-In . SVG Version: 6.00 Build 0)  -->
<svg version="1.1" id="图层_1" xmlns="http://www.w3.org/2000/svg" xmlns:xlink="http://www.w3.org/1999/xlink" x="0px" y="0px"
	 viewBox="0 0 32 32" style="enable-background:new 0 0 32 32;" xml:space="preserve">
<style type="text/css">
	.st0{fill:#FF8500;}
	.st1{fill:#666666;}
	.st2{fill:#CBD4E1;}
</style>
<path class="st0" d="M-292.9,8.5h5.2c0.4,0,0.6,0.2,0.6,0.6v5.2c0,0.4-0.2,0.6-0.6,0.6h-5.2c-0.4,0-0.6-0.2-0.6-0.6V9.1
	C-293.5,8.7-293.3,8.5-292.9,8.5z"/>
<path class="st0" d="M-285.2,8.5h5.2c0.4,0,0.6,0.2,0.6,0.6v5.2c0,0.4-0.2,0.6-0.6,0.6h-5.2c-0.4,0-0.6-0.2-0.6-0.6V9.1
	C-285.8,8.7-285.6,8.5-285.2,8.5z"/>
<path class="st0" d="M-292.9,16.2h5.2c0.4,0,0.6,0.2,0.6,0.6V22c0,0.4-0.2,0.6-0.6,0.6h-5.2c-0.4,0-0.6-0.2-0.6-0.6v-5.2
	C-293.5,16.4-293.3,16.2-292.9,16.2z"/>
<path class="st0" d="M-282.3,15.4l3.6,3.6c0.3,0.3,0.3,0.6,0,0.8l-3.6,3.6c-0.3,0.3-0.6,0.3-0.8,0l-3.6-3.6c-0.3-0.3-0.3-0.6,0-0.8
	l3.6-3.6C-282.9,15.1-282.6,15.1-282.3,15.4z"/>
<path class="st0" d="M-252.1,8.4c-3,0-5.4,2.4-5.4,5.3c0,0,0,0.1,0,0.1c0,2.5,3.6,7.5,5,9.5c0.2,0.2,0.5,0.2,0.7,0c0,0,0,0,0,0
	c1.4-1.9,5-7,5-9.5l0-0.1C-246.7,10.8-249.1,8.4-252.1,8.4z M-252.1,16.2c-1.4,0-2.6-1.1-2.6-2.6s1.2-2.6,2.6-2.6
	c1.4,0,2.6,1.1,2.6,2.6S-250.6,16.2-252.1,16.2z"/>
<path class="st1" d="M-195.7,11.6h6.3c0.4,0,0.8-0.4,0.8-0.8c0-0.4-0.4-0.8-0.8-0.8h-6.3c-0.4,0-0.8,0.4-0.8,0.8
	C-196.4,11.2-196.1,11.6-195.7,11.6z M-195.7,16.6h8.3c0.4,0,0.8-0.4,0.8-0.8c0-0.4-0.3-0.8-0.8-0.8c0,0,0,0,0,0h-8.3
	c-0.4,0-0.8,0.4-0.8,0.8C-196.4,16.2-196.1,16.5-195.7,16.6z M-195.7,21.5h6.3c0.4,0,0.8-0.4,0.8-0.8c0-0.4-0.4-0.8-0.8-0.8h-6.3
	c-0.4,0-0.8,0.4-0.8,0.8C-196.4,21.1-196.1,21.4-195.7,21.5z M-204.3,11.6h5.3c0.4,0,0.8-0.4,0.8-0.8c0-0.4-0.4-0.8-0.8-0.8h-5.3
	c-0.4,0-0.8,0.4-0.8,0.8C-205.1,11.2-204.7,11.6-204.3,11.6L-204.3,11.6z M-198.1,21.3c0-0.4-0.4-0.8-0.8-0.8h-5.4
	c-0.4,0-0.8,0.4-0.8,0.8c0,0.4,0.4,0.8,0.8,0.8h5.3C-198.5,22-198.1,21.7-198.1,21.3z"/>
<path class="st1" d="M-186.4,4.8H-199c-1.9,0-3.4,1.5-3.4,3.4c0,0,0,0,0,0c0,0.4,0.4,0.8,0.8,0.8c0.4,0,0.8-0.4,0.8-0.8
	c0-1,0.8-1.8,1.8-1.8h12.5c1,0,1.8,0.8,1.8,1.8v15.6c0,1-0.8,1.8-1.8,1.8H-199c-1,0-1.8-0.8-1.8-1.8c0-0.4-0.4-0.8-0.8-0.8
	c-0.4,0-0.8,0.4-0.8,0.8c0,1.9,1.5,3.4,3.4,3.4c0,0,0,0,0,0h12.5c1.9,0,3.4-1.5,3.4-3.4c0,0,0,0,0,0V8.2
	C-183.1,6.3-184.6,4.8-186.4,4.8z"/>
<path class="st1" d="M-202.4,13.9v4.2c0,0.4,0.4,0.8,0.8,0.8c0.4,0,0.8-0.4,0.8-0.8v-4.2c0-0.4-0.4-0.8-0.8-0.8
	C-202,13.2-202.3,13.5-202.4,13.9z"/>
<path class="st1" d="M-141.6,21.1h-3.7c-0.3,0-0.6-0.3-0.6-0.6c0-0.3,0.3-0.6,0.6-0.6h3.2V10c0-0.3-0.3-0.6-0.6-0.6h-9.3
	c-0.3,0-0.6,0.3-0.6,0.6c0,0.3-0.3,0.6-0.6,0.6h-1.4c-0.3,0-0.6-0.3-0.6-0.6c0-0.3,0.2-0.6,0.6-0.6h0.9c0.2-0.7,0.9-1.2,1.6-1.2h9.3
	c1,0,1.7,0.8,1.7,1.8v10.5C-141,20.8-141.3,21.1-141.6,21.1z M-149.4,21.1h-2.6c-1,0-1.7-0.8-1.7-1.8c0-0.3,0.3-0.6,0.6-0.6
	c0.3,0,0.6,0.3,0.6,0.6s0.3,0.6,0.6,0.6h2.6c0.3,0,0.6,0.3,0.6,0.6C-148.8,20.8-149.1,21.1-149.4,21.1z"/>
<path class="st1" d="M-135.2,21.1h-0.8c-0.3,0-0.6-0.3-0.6-0.6c0-0.3,0.3-0.6,0.6-0.6h0.8v-3.6l-2.2-3.3h-3.6v7h0.9
	c0.3,0,0.6,0.3,0.6,0.6c0,0.3-0.3,0.6-0.6,0.6h-1.5c-0.3,0-0.6-0.3-0.6-0.6v-8.2c0-0.3,0.3-0.6,0.6-0.6h4.1c0.4,0,0.7,0.2,1,0.5
	l2.2,3.3c0.1,0.2,0.2,0.4,0.2,0.7v3.7C-134,20.5-134.6,21.1-135.2,21.1z M-147.3,23.1c-1.4,0-2.6-1.2-2.6-2.6c0-1.4,1.2-2.6,2.6-2.6
	s2.6,1.2,2.6,2.6C-144.7,21.9-145.9,23.1-147.3,23.1z M-147.3,19.1c-0.8,0-1.5,0.7-1.5,1.5s0.7,1.5,1.5,1.5c0.8,0,1.5-0.7,1.5-1.5
	C-145.9,19.7-146.5,19.1-147.3,19.1z"/>
<path class="st1" d="M-138,23.1c-1.4,0-2.6-1.2-2.6-2.6c0-1.4,1.2-2.6,2.6-2.6c1.4,0,2.6,1.2,2.6,2.6
	C-135.4,21.9-136.6,23.1-138,23.1z M-138,19.1c-0.8,0-1.5,0.7-1.5,1.5s0.7,1.5,1.5,1.5c0.8,0,1.5-0.7,1.5-1.5S-137.2,19.1-138,19.1z
	 M-151.3,12.7h-2.7c-0.3,0-0.6-0.3-0.6-0.6c0-0.3,0.3-0.6,0.6-0.6h2.7c0.3,0,0.6,0.3,0.6,0.6C-150.8,12.4-151,12.7-151.3,12.7z
	 M-152.6,17.3h-2.7c-0.3,0-0.6-0.3-0.6-0.6c0-0.3,0.3-0.6,0.6-0.6h2.7c0.3,0,0.6,0.3,0.6,0.6C-152,17.1-152.3,17.3-152.6,17.3z
	 M-148.8,14.8h-7.9c-0.3,0-0.6-0.3-0.6-0.6c0-0.3,0.3-0.6,0.6-0.6h7.9c0.3,0,0.6,0.3,0.6,0.6C-148.2,14.5-148.5,14.8-148.8,14.8z
	 M-135.8,15h-3.5c-0.3,0-0.6-0.3-0.6-0.6c0-0.3,0.3-0.6,0.6-0.6h3.5c0.3,0,0.6,0.3,0.6,0.6C-135.2,14.7-135.5,15-135.8,15z"/>
<path class="st1" d="M-88.9,27.4h-16.6c-1.6,0-2.9-1.3-2.9-2.9V7.6c0-1.6,1.3-2.9,2.9-2.9h16.6c1.6,0,2.9,1.3,2.9,2.9v16.9
	C-86,26-87.3,27.4-88.9,27.4z M-105.5,6.3c-0.7,0-1.3,0.6-1.3,1.3v16.9c0,0.7,0.6,1.3,1.3,1.3h16.6c0.7,0,1.3-0.6,1.3-1.3V7.6
	c0-0.7-0.6-1.3-1.3-1.3C-88.9,6.3-105.5,6.3-105.5,6.3z"/>
<path class="st1" d="M-104.1,10.3c0,0.5,0.4,0.9,0.9,0.9c0.5,0,0.9-0.4,0.9-0.9c0-0.5-0.4-0.9-0.9-0.9
	C-103.7,9.4-104.1,9.8-104.1,10.3z M-90.2,11.1h-10.7c-0.5,0-0.8-0.4-0.8-0.8s0.4-0.8,0.8-0.8h10.7c0.5,0,0.8,0.4,0.8,0.8
	S-89.8,11.1-90.2,11.1z M-104.1,15.9c0,0.5,0.4,0.9,0.9,0.9c0.5,0,0.9-0.4,0.9-0.9c0-0.5-0.4-0.9-0.9-0.9
	C-103.7,15-104.1,15.4-104.1,15.9z M-90.2,16.8h-10.7c-0.5,0-0.8-0.4-0.8-0.8c0-0.5,0.4-0.8,0.8-0.8h10.7c0.5,0,0.8,0.4,0.8,0.8
	C-89.4,16.4-89.8,16.8-90.2,16.8z M-104.1,21.6c0,0.5,0.4,0.9,0.9,0.9c0.5,0,0.9-0.4,0.9-0.9c0-0.5-0.4-0.9-0.9-0.9
	C-103.7,20.7-104.1,21.1-104.1,21.6z M-90.2,22.4h-10.7c-0.5,0-0.8-0.4-0.8-0.8c0-0.5,0.4-0.8,0.8-0.8h10.7c0.5,0,0.8,0.4,0.8,0.8
	C-89.4,22-89.8,22.4-90.2,22.4z"/>
<path class="st1" d="M-40.2,25h-15.9c-2,0-3.6-1.4-3.6-3.2v-8.9c0-0.4,0.3-0.6,0.7-0.6s0.7,0.3,0.7,0.6v8.9c0,1.1,1,1.9,2.2,1.9
	h15.9c1.2,0,2.2-0.9,2.2-1.9v-8.9c0-0.4,0.3-0.6,0.7-0.6c0.4,0,0.7,0.3,0.7,0.6v8.9C-36.6,23.6-38.2,25-40.2,25L-40.2,25z"/>
<path class="st1" d="M-48.2,18.1l-2.6-2.3c0.7-0.3,1.1-1,1.1-1.7V11h2.9v3.2c0,0.7,0.5,1.3,1.1,1.7L-48.2,18.1z M-48.2,19.7
	c0.2,0,0.4-0.1,0.5-0.2l4.7-4.2c0.3-0.2,0.2-0.5-0.2-0.5h-1.4c-0.4,0-0.7-0.3-0.7-0.6v-3.8c0-0.4-0.3-0.6-0.7-0.6h-4.3
	c-0.4,0-0.7,0.3-0.7,0.6v3.8c0,0.4-0.3,0.6-0.7,0.6h-1.4c-0.4,0-0.5,0.2-0.2,0.5l4.7,4.2C-48.5,19.6-48.3,19.7-48.2,19.7z M-51,7.8
	c0-0.4,0.3-0.6,0.7-0.6c0.4,0,0.7,0.3,0.7,0.6c0,0.4-0.3,0.6-0.7,0.6c0,0,0,0,0,0C-50.7,8.4-51,8.1-51,7.8C-51,7.8-51,7.8-51,7.8z
	 M-46.7,7.8c0-0.4,0.3-0.6,0.7-0.6s0.7,0.3,0.7,0.6c0,0.4-0.3,0.6-0.7,0.6c0,0,0,0,0,0C-46.4,8.4-46.7,8.1-46.7,7.8
	C-46.7,7.8-46.7,7.8-46.7,7.8z"/>
<path class="st1" d="M-50.3,7.2h4.3v1.3h-4.3V7.2z"/>
<path class="st2" d="M29.3,0.6h-5c-0.4,0-0.6,0.5-0.6,0.5l-1.6,2.6c0,0-0.1,0.2-0.2,0.2c0,0-0.2,0-0.2,0H10.2c0,0-0.1,0-0.1,0
	c0,0-0.1-0.1-0.1-0.1L8.3,1.1c0,0-0.2-0.5-0.6-0.5H2.7C1.9,0.6,1.3,1.2,1.3,2v27.9c0,0.8,0.6,1.4,1.4,1.4c0,0,0,0,0,0h26.6
	c0.8,0,1.4-0.6,1.4-1.4c0,0,0,0,0,0V2C30.7,1.2,30,0.6,29.3,0.6z M24.4,23.8c0,0.2-0.2,0.4-0.4,0.4c0,0,0,0,0,0H8
	c-0.2,0-0.4-0.2-0.4-0.4v-0.3c0-0.2,0.2-0.4,0.4-0.4c0,0,0,0,0,0h15.9c0.2,0,0.4,0.2,0.4,0.4c0,0,0,0,0,0
	C24.4,23.5,24.4,23.8,24.4,23.8z M24.4,18c0,0.2-0.2,0.4-0.4,0.4c0,0,0,0,0,0H8c-0.2,0-0.4-0.2-0.4-0.4v-0.3c0-0.2,0.2-0.4,0.4-0.4
	c0,0,0,0,0,0h15.9c0.2,0,0.4,0.2,0.4,0.4c0,0,0,0,0,0C24.4,17.7,24.4,18,24.4,18z M24.4,12.2c0,0.2-0.2,0.4-0.4,0.4c0,0,0,0,0,0H8
	c-0.2,0-0.4-0.2-0.4-0.4l0,0v-0.3c0-0.2,0.2-0.4,0.4-0.4l0,0h15.9c0.2,0,0.4,0.2,0.4,0.4c0,0,0,0,0,0C24.4,11.9,24.4,12.2,24.4,12.2
	z"/>
<path class="st2" d="M11.5,1.7h8.9c0.2,0,0.4-0.2,0.4-0.4c0,0,0,0,0,0V1c0-0.2-0.2-0.4-0.4-0.4l0,0h-8.9c-0.2,0-0.4,0.2-0.4,0.4l0,0
	v0.3C11.1,1.5,11.3,1.7,11.5,1.7C11.5,1.7,11.5,1.7,11.5,1.7z"/>
</svg>
