<svg id="图层_1" data-name="图层 1" xmlns="http://www.w3.org/2000/svg" viewBox="0 0 26 26"><defs><style>.cls-1{fill:#ccd2db;}</style></defs><title>gongdan-2</title><path class="cls-1" d="M17.76,10.23H7.66a.83.83,0,1,0,0,1.66h10.1a.83.83,0,1,0,0-1.66Zm0,5H7.66a.83.83,0,1,0,0,1.66h10.1a.83.83,0,1,0,0-1.66Z" transform="translate(0.595 0.5)"/><path class="cls-1" d="M21.24,0H3.76A2.56,2.56,0,0,0,1.14,2.5v20A2.56,2.56,0,0,0,3.76,25H21.24a2.56,2.56,0,0,0,2.62-2.5V2.5A2.56,2.56,0,0,0,21.24,0Zm-14,1.67H17.74v2.5H7.26ZM22.12,22.5a.86.86,0,0,1-.88.83H3.76a.86.86,0,0,1-.88-.83V2.5a.86.86,0,0,1,.88-.83H5.51v2.5A1.7,1.7,0,0,0,7.26,5.83H17.74a1.7,1.7,0,0,0,1.75-1.66V1.67h1.75a.86.86,0,0,1,.88.83Z" transform="translate(0.595 0.5)"/></svg>