<?xml version="1.0" encoding="utf-8"?>
<!-- Generator: Adobe Illustrator 23.0.1, SVG Export Plug-In . SVG Version: 6.00 Build 0)  -->
<svg version="1.1" id="图层_1" xmlns="http://www.w3.org/2000/svg" xmlns:xlink="http://www.w3.org/1999/xlink" x="0px" y="0px"
	 viewBox="0 0 32 32" style="enable-background:new 0 0 32 32;" xml:space="preserve">
<style type="text/css">
	.st0{fill:#FF8500;}
	.st1{fill:#666666;}
	.st2{fill:#CBD4E1;}
</style>
<path class="st0" d="M-404.9,8.5h5.2c0.4,0,0.6,0.2,0.6,0.6v5.2c0,0.4-0.2,0.6-0.6,0.6h-5.2c-0.4,0-0.6-0.2-0.6-0.6V9.1
	C-405.5,8.7-405.3,8.5-404.9,8.5z"/>
<path class="st0" d="M-397.1,8.5h5.2c0.4,0,0.6,0.2,0.6,0.6v5.2c0,0.4-0.2,0.6-0.6,0.6h-5.2c-0.4,0-0.6-0.2-0.6-0.6V9.1
	C-397.7,8.7-397.5,8.5-397.1,8.5z"/>
<path class="st0" d="M-404.9,16.2h5.2c0.4,0,0.6,0.2,0.6,0.6V22c0,0.4-0.2,0.6-0.6,0.6h-5.2c-0.4,0-0.6-0.2-0.6-0.6v-5.2
	C-405.5,16.4-405.3,16.2-404.9,16.2z"/>
<path class="st0" d="M-394.2,15.4l3.6,3.6c0.3,0.3,0.3,0.6,0,0.8l-3.6,3.6c-0.3,0.3-0.6,0.3-0.8,0l-3.6-3.6c-0.3-0.3-0.3-0.6,0-0.8
	l3.6-3.6C-394.8,15.1-394.5,15.1-394.2,15.4z"/>
<path class="st0" d="M-364,8.4c-3,0-5.4,2.4-5.4,5.3c0,0,0,0.1,0,0.1c0,2.5,3.6,7.5,5,9.5c0.2,0.2,0.5,0.2,0.7,0c0,0,0,0,0,0
	c1.4-1.9,5-7,5-9.5l0-0.1C-358.6,10.8-361,8.4-364,8.4z M-364,16.2c-1.4,0-2.6-1.1-2.6-2.6s1.2-2.6,2.6-2.6c1.4,0,2.6,1.1,2.6,2.6
	S-362.6,16.2-364,16.2z"/>
<path class="st1" d="M-307.6,11.6h6.3c0.4,0,0.8-0.4,0.8-0.8c0-0.4-0.4-0.8-0.8-0.8h-6.3c-0.4,0-0.8,0.4-0.8,0.8
	C-308.4,11.2-308.1,11.6-307.6,11.6z M-307.6,16.6h8.3c0.4,0,0.8-0.4,0.8-0.8c0-0.4-0.3-0.8-0.8-0.8c0,0,0,0,0,0h-8.3
	c-0.4,0-0.8,0.4-0.8,0.8C-308.4,16.2-308.1,16.5-307.6,16.6z M-307.6,21.5h6.3c0.4,0,0.8-0.4,0.8-0.8c0-0.4-0.4-0.8-0.8-0.8h-6.3
	c-0.4,0-0.8,0.4-0.8,0.8C-308.4,21.1-308.1,21.4-307.6,21.5z M-316.2,11.6h5.3c0.4,0,0.8-0.4,0.8-0.8c0-0.4-0.4-0.8-0.8-0.8h-5.3
	c-0.4,0-0.8,0.4-0.8,0.8C-317,11.2-316.7,11.6-316.2,11.6L-316.2,11.6z M-310.1,21.3c0-0.4-0.4-0.8-0.8-0.8h-5.4
	c-0.4,0-0.8,0.4-0.8,0.8c0,0.4,0.4,0.8,0.8,0.8h5.3C-310.4,22-310.1,21.7-310.1,21.3z"/>
<path class="st1" d="M-298.4,4.8h-12.5c-1.9,0-3.4,1.5-3.4,3.4c0,0,0,0,0,0c0,0.4,0.4,0.8,0.8,0.8c0.4,0,0.8-0.4,0.8-0.8
	c0-1,0.8-1.8,1.8-1.8h12.5c1,0,1.8,0.8,1.8,1.8v15.6c0,1-0.8,1.8-1.8,1.8h-12.5c-1,0-1.8-0.8-1.8-1.8c0-0.4-0.4-0.8-0.8-0.8
	c-0.4,0-0.8,0.4-0.8,0.8c0,1.9,1.5,3.4,3.4,3.4c0,0,0,0,0,0h12.5c1.9,0,3.4-1.5,3.4-3.4c0,0,0,0,0,0V8.2
	C-295,6.3-296.6,4.8-298.4,4.8z"/>
<path class="st1" d="M-314.3,13.9v4.2c0,0.4,0.4,0.8,0.8,0.8c0.4,0,0.8-0.4,0.8-0.8v-4.2c0-0.4-0.4-0.8-0.8-0.8
	C-314,13.2-314.3,13.5-314.3,13.9z"/>
<path class="st1" d="M-253.6,21.1h-3.7c-0.3,0-0.6-0.3-0.6-0.6c0-0.3,0.3-0.6,0.6-0.6h3.2V10c0-0.3-0.3-0.6-0.6-0.6h-9.3
	c-0.3,0-0.6,0.3-0.6,0.6c0,0.3-0.3,0.6-0.6,0.6h-1.4c-0.3,0-0.6-0.3-0.6-0.6c0-0.3,0.2-0.6,0.6-0.6h0.9c0.2-0.7,0.9-1.2,1.6-1.2h9.3
	c1,0,1.7,0.8,1.7,1.8v10.5C-253,20.8-253.2,21.1-253.6,21.1z M-261.3,21.1h-2.6c-1,0-1.7-0.8-1.7-1.8c0-0.3,0.3-0.6,0.6-0.6
	c0.3,0,0.6,0.3,0.6,0.6s0.3,0.6,0.6,0.6h2.6c0.3,0,0.6,0.3,0.6,0.6C-260.8,20.8-261,21.1-261.3,21.1z"/>
<path class="st1" d="M-247.1,21.1h-0.8c-0.3,0-0.6-0.3-0.6-0.6c0-0.3,0.3-0.6,0.6-0.6h0.8v-3.6l-2.2-3.3h-3.6v7h0.9
	c0.3,0,0.6,0.3,0.6,0.6c0,0.3-0.3,0.6-0.6,0.6h-1.5c-0.3,0-0.6-0.3-0.6-0.6v-8.2c0-0.3,0.3-0.6,0.6-0.6h4.1c0.4,0,0.7,0.2,1,0.5
	l2.2,3.3c0.1,0.2,0.2,0.4,0.2,0.7v3.7C-246,20.5-246.5,21.1-247.1,21.1z M-259.3,23.1c-1.4,0-2.6-1.2-2.6-2.6c0-1.4,1.2-2.6,2.6-2.6
	s2.6,1.2,2.6,2.6C-256.7,21.9-257.9,23.1-259.3,23.1z M-259.3,19.1c-0.8,0-1.5,0.7-1.5,1.5s0.7,1.5,1.5,1.5c0.8,0,1.5-0.7,1.5-1.5
	C-257.9,19.7-258.5,19.1-259.3,19.1z"/>
<path class="st1" d="M-249.9,23.1c-1.4,0-2.6-1.2-2.6-2.6c0-1.4,1.2-2.6,2.6-2.6c1.4,0,2.6,1.2,2.6,2.6
	C-247.3,21.9-248.5,23.1-249.9,23.1z M-249.9,19.1c-0.8,0-1.5,0.7-1.5,1.5s0.7,1.5,1.5,1.5c0.8,0,1.5-0.7,1.5-1.5
	S-249.1,19.1-249.9,19.1z M-263.3,12.7h-2.7c-0.3,0-0.6-0.3-0.6-0.6c0-0.3,0.3-0.6,0.6-0.6h2.7c0.3,0,0.6,0.3,0.6,0.6
	C-262.7,12.4-263,12.7-263.3,12.7z M-264.6,17.3h-2.7c-0.3,0-0.6-0.3-0.6-0.6c0-0.3,0.3-0.6,0.6-0.6h2.7c0.3,0,0.6,0.3,0.6,0.6
	C-264,17.1-264.2,17.3-264.6,17.3z M-260.7,14.8h-7.9c-0.3,0-0.6-0.3-0.6-0.6c0-0.3,0.3-0.6,0.6-0.6h7.9c0.3,0,0.6,0.3,0.6,0.6
	C-260.1,14.5-260.4,14.8-260.7,14.8z M-247.8,15h-3.5c-0.3,0-0.6-0.3-0.6-0.6c0-0.3,0.3-0.6,0.6-0.6h3.5c0.3,0,0.6,0.3,0.6,0.6
	C-247.2,14.7-247.4,15-247.8,15z"/>
<path class="st1" d="M-200.8,27.4h-16.6c-1.6,0-2.9-1.3-2.9-2.9V7.6c0-1.6,1.3-2.9,2.9-2.9h16.6c1.6,0,2.9,1.3,2.9,2.9v16.9
	C-197.9,26-199.2,27.4-200.8,27.4z M-217.5,6.3c-0.7,0-1.3,0.6-1.3,1.3v16.9c0,0.7,0.6,1.3,1.3,1.3h16.6c0.7,0,1.3-0.6,1.3-1.3V7.6
	c0-0.7-0.6-1.3-1.3-1.3C-200.8,6.3-217.5,6.3-217.5,6.3z"/>
<path class="st1" d="M-216,10.3c0,0.5,0.4,0.9,0.9,0.9c0.5,0,0.9-0.4,0.9-0.9c0-0.5-0.4-0.9-0.9-0.9C-215.6,9.4-216,9.8-216,10.3z
	 M-202.2,11.1h-10.7c-0.5,0-0.8-0.4-0.8-0.8s0.4-0.8,0.8-0.8h10.7c0.5,0,0.8,0.4,0.8,0.8S-201.7,11.1-202.2,11.1z M-216,15.9
	c0,0.5,0.4,0.9,0.9,0.9c0.5,0,0.9-0.4,0.9-0.9c0-0.5-0.4-0.9-0.9-0.9C-215.6,15-216,15.4-216,15.9z M-202.2,16.8h-10.7
	c-0.5,0-0.8-0.4-0.8-0.8c0-0.5,0.4-0.8,0.8-0.8h10.7c0.5,0,0.8,0.4,0.8,0.8C-201.4,16.4-201.7,16.8-202.2,16.8z M-216,21.6
	c0,0.5,0.4,0.9,0.9,0.9c0.5,0,0.9-0.4,0.9-0.9c0-0.5-0.4-0.9-0.9-0.9C-215.6,20.7-216,21.1-216,21.6z M-202.2,22.4h-10.7
	c-0.5,0-0.8-0.4-0.8-0.8c0-0.5,0.4-0.8,0.8-0.8h10.7c0.5,0,0.8,0.4,0.8,0.8C-201.4,22-201.7,22.4-202.2,22.4z"/>
<path class="st1" d="M-152.2,25H-168c-2,0-3.6-1.4-3.6-3.2v-8.9c0-0.4,0.3-0.6,0.7-0.6c0.4,0,0.7,0.3,0.7,0.6v8.9
	c0,1.1,1,1.9,2.2,1.9h15.9c1.2,0,2.2-0.9,2.2-1.9v-8.9c0-0.4,0.3-0.6,0.7-0.6c0.4,0,0.7,0.3,0.7,0.6v8.9
	C-148.6,23.6-150.2,25-152.2,25L-152.2,25z"/>
<path class="st1" d="M-160.1,18.1l-2.6-2.3c0.7-0.3,1.1-1,1.1-1.7V11h2.9v3.2c0,0.7,0.5,1.3,1.1,1.7L-160.1,18.1z M-160.1,19.7
	c0.2,0,0.4-0.1,0.5-0.2l4.7-4.2c0.3-0.2,0.2-0.5-0.2-0.5h-1.4c-0.4,0-0.7-0.3-0.7-0.6v-3.8c0-0.4-0.3-0.6-0.7-0.6h-4.3
	c-0.4,0-0.7,0.3-0.7,0.6v3.8c0,0.4-0.3,0.6-0.7,0.6h-1.4c-0.4,0-0.5,0.2-0.2,0.5l4.7,4.2C-160.5,19.6-160.3,19.7-160.1,19.7z
	 M-163,7.8c0-0.4,0.3-0.6,0.7-0.6c0.4,0,0.7,0.3,0.7,0.6c0,0.4-0.3,0.6-0.7,0.6c0,0,0,0,0,0C-162.7,8.4-163,8.1-163,7.8
	C-163,7.8-163,7.8-163,7.8z M-158.7,7.8c0-0.4,0.3-0.6,0.7-0.6c0.4,0,0.7,0.3,0.7,0.6c0,0.4-0.3,0.6-0.7,0.6c0,0,0,0,0,0
	C-158.3,8.4-158.7,8.1-158.7,7.8C-158.7,7.8-158.7,7.8-158.7,7.8z"/>
<path class="st1" d="M-162.3,7.2h4.3v1.3h-4.3V7.2z"/>
<path class="st2" d="M-82.7,0.6h-5c-0.4,0-0.6,0.5-0.6,0.5l-1.6,2.6c0,0-0.1,0.2-0.2,0.2c0,0-0.2,0-0.2,0h-11.6c0,0-0.1,0-0.1,0
	c0,0-0.1-0.1-0.1-0.1l-1.6-2.7c0,0-0.2-0.5-0.6-0.5h-4.9c-0.8,0-1.4,0.6-1.4,1.4v27.9c0,0.8,0.6,1.4,1.4,1.4c0,0,0,0,0,0h26.6
	c0.8,0,1.4-0.6,1.4-1.4c0,0,0,0,0,0V2C-81.3,1.2-81.9,0.6-82.7,0.6z M-87.6,23.8c0,0.2-0.2,0.4-0.4,0.4c0,0,0,0,0,0h-15.9
	c-0.2,0-0.4-0.2-0.4-0.4v-0.3c0-0.2,0.2-0.4,0.4-0.4c0,0,0,0,0,0H-88c0.2,0,0.4,0.2,0.4,0.4c0,0,0,0,0,0
	C-87.6,23.5-87.6,23.8-87.6,23.8z M-87.6,18c0,0.2-0.2,0.4-0.4,0.4c0,0,0,0,0,0h-15.9c-0.2,0-0.4-0.2-0.4-0.4v-0.3
	c0-0.2,0.2-0.4,0.4-0.4c0,0,0,0,0,0H-88c0.2,0,0.4,0.2,0.4,0.4c0,0,0,0,0,0C-87.6,17.7-87.6,18-87.6,18z M-87.6,12.2
	c0,0.2-0.2,0.4-0.4,0.4c0,0,0,0,0,0h-15.9c-0.2,0-0.4-0.2-0.4-0.4l0,0v-0.3c0-0.2,0.2-0.4,0.4-0.4l0,0H-88c0.2,0,0.4,0.2,0.4,0.4
	c0,0,0,0,0,0C-87.6,11.9-87.6,12.2-87.6,12.2z"/>
<path class="st2" d="M-100.4,1.7h8.9c0.2,0,0.4-0.2,0.4-0.4c0,0,0,0,0,0V1c0-0.2-0.2-0.4-0.4-0.4l0,0h-8.9c-0.2,0-0.4,0.2-0.4,0.4
	l0,0v0.3C-100.8,1.5-100.6,1.7-100.4,1.7C-100.4,1.7-100.4,1.7-100.4,1.7z"/>
<path class="st2" d="M-40.4,7h-25.5l-2.6,6.9c0,2.1,1.7,3.8,3.8,3.8c2.1,0,3.9-1.7,3.9-3.8c0,2.1,1.7,3.8,3.8,3.8s3.9-1.7,3.9-3.8
	c0,2.1,1.7,3.8,3.8,3.8s3.8-1.7,3.8-3.8c0,2.1,1.7,3.8,3.9,3.8c2.1,0,3.9-1.7,3.9-3.8C-37.6,14-40.4,7-40.4,7z"/>
<path class="st2" d="M-42.5,18.9v8.8h-21.2v-8.8h-2.2v9.3c0,0.8,0.9,1.8,1.7,1.8H-42c0.8,0,1.7-1,1.7-1.8v-9.3
	C-40.3,18.9-42.5,18.9-42.5,18.9z"/>
<path class="st2" d="M-40.4,7L-40.4,7L-40.4,7z"/>
<path class="st2" d="M-64.1,5.2H-42c0.8,0,1.3-0.6,1.3-1.3s-0.6-1.3-1.3-1.3h-22.1c-0.8,0-1.3,0.6-1.3,1.3S-64.9,5.2-64.1,5.2z"/>
<path class="st2" d="M11.2,5.3h10c0.7,0,1.3-0.5,1.3-1.2V1.8h-3.8V1.4c0-0.4-0.4-0.7-0.8-0.7h-3.4c-0.4,0-0.8,0.3-0.8,0.7v0.4H10
	v2.3C10,4.8,10.5,5.3,11.2,5.3z"/>
<path class="st2" d="M28,1.9h-3.4v3.6c0,1-0.8,1.8-1.8,1.8H9.3c-1,0-1.8-0.8-1.8-1.8V1.9H4.1c-0.5,0-0.8,0.4-0.8,0.8l0,0v27.6
	c0,0.5,0.4,0.8,0.8,0.8c0,0,0,0,0,0H28c0.5,0,0.8-0.4,0.8-0.8c0,0,0,0,0,0v-26c0-0.6,0-1.1,0-1.6C28.8,2.3,28.4,1.9,28,1.9z
	 M15.6,22.8c-0.5,0.5-1.3,0.5-1.7,0l-3.5-3.5c-0.5-0.5-0.5-1.2,0-1.7c0.5-0.5,1.3-0.5,1.7,0l2.6,2.6l5.2-5.2c0.5-0.5,1.3-0.5,1.7,0
	c0.5,0.5,0.5,1.3,0,1.7L15.6,22.8L15.6,22.8z"/>
</svg>
