<?xml version="1.0" encoding="utf-8"?>
<!-- Generator: Adobe Illustrator 23.0.1, SVG Export Plug-In . SVG Version: 6.00 Build 0)  -->
<svg version="1.1" id="图层_1" xmlns="http://www.w3.org/2000/svg" xmlns:xlink="http://www.w3.org/1999/xlink" x="0px" y="0px"
	 viewBox="0 0 16 16" style="enable-background:new 0 0 16 16;" xml:space="preserve">
<style type="text/css">
	.st0{fill:#666666;}
</style>
<path class="st0" d="M-32.8,0.5h5.2c0.4,0,0.6,0.2,0.6,0.6v5.2c0,0.4-0.2,0.6-0.6,0.6h-5.2c-0.4,0-0.6-0.2-0.6-0.6V1.1
	C-33.4,0.7-33.2,0.5-32.8,0.5z"/>
<path class="st0" d="M-25.1,0.5h5.2c0.4,0,0.6,0.2,0.6,0.6v5.2c0,0.4-0.2,0.6-0.6,0.6h-5.2c-0.4,0-0.6-0.2-0.6-0.6V1.1
	C-25.7,0.7-25.5,0.5-25.1,0.5z"/>
<path class="st0" d="M-32.8,8.2h5.2c0.4,0,0.6,0.2,0.6,0.6V14c0,0.4-0.2,0.6-0.6,0.6h-5.2c-0.4,0-0.6-0.2-0.6-0.6V8.8
	C-33.4,8.4-33.2,8.2-32.8,8.2z"/>
<path class="st0" d="M-22.2,7.4l3.6,3.6c0.3,0.3,0.3,0.6,0,0.8l-3.6,3.6c-0.3,0.3-0.6,0.3-0.8,0l-3.6-3.6c-0.3-0.3-0.3-0.6,0-0.8
	l3.6-3.6C-22.7,7.1-22.5,7.1-22.2,7.4z"/>
<path class="st0" d="M8.1,0.4c-3,0-5.4,2.4-5.4,5.3c0,0,0,0.1,0,0.1c0,2.5,3.6,7.5,5,9.5c0.2,0.2,0.5,0.2,0.7,0c0,0,0,0,0,0
	c1.4-1.9,5-7,5-9.5l0-0.1C13.4,2.8,11,0.4,8.1,0.4z M8.1,8.2c-1.4,0-2.6-1.1-2.6-2.6s1.2-2.6,2.6-2.6c1.4,0,2.6,1.1,2.6,2.6
	S9.5,8.2,8.1,8.2z"/>
</svg>
