<?xml version="1.0" encoding="utf-8"?>
<!-- Generator: Adobe Illustrator 23.0.1, SVG Export Plug-In . SVG Version: 6.00 Build 0)  -->
<svg version="1.1" id="图层_1" xmlns="http://www.w3.org/2000/svg" xmlns:xlink="http://www.w3.org/1999/xlink" x="0px" y="0px"
	 viewBox="0 0 16 16" style="enable-background:new 0 0 16 16;" xml:space="preserve">
<style type="text/css">
	.st0{fill:#FF8500;}
	.st1{fill:none;stroke:#FFFFFF;stroke-linecap:round;stroke-linejoin:round;stroke-miterlimit:10;}
	.st2{fill:#FFFFFF;}
	.st3{fill:#DDE6F0;}
</style>
<path class="st0" d="M-38.8,13.9c-3.8,0-6.9-3.1-6.9-6.9c0-3.8,3.1-6.9,6.9-6.9s6.9,3.1,6.9,6.9C-31.9,10.8-35,13.9-38.8,13.9z
	 M-38.8,1.2c-3.2,0-5.8,2.6-5.8,5.8s2.6,5.8,5.8,5.8S-33,10.2-33,7S-35.6,1.2-38.8,1.2z"/>
<path class="st0" d="M-30.5,15.9c-0.1,0-0.3-0.1-0.4-0.2l-3.6-3.6c-0.2-0.2-0.2-0.6,0-0.8c0.2-0.2,0.6-0.2,0.8,0l3.6,3.6
	c0.2,0.2,0.2,0.6,0,0.8C-30.2,15.8-30.3,15.9-30.5,15.9z"/>
<path class="st0" d="M-10.1,15.8h-11c-0.4,0-0.7-0.3-0.7-0.7V0.9c0-0.4,0.3-0.7,0.7-0.7h11c0.4,0,0.7,0.3,0.7,0.7v14.2
	C-9.4,15.5-9.7,15.8-10.1,15.8z"/>
<line class="st1" x1="-19.5" y1="4.2" x2="-11.8" y2="4.2"/>
<line class="st1" x1="-19.5" y1="7.7" x2="-11.8" y2="7.7"/>
<line class="st1" x1="-19.5" y1="11.3" x2="-11.8" y2="11.3"/>
<path class="st0" d="M9.1,15.9c-0.4,0-0.7-0.3-0.7-0.7c0,0,0,0,0,0V9c0-0.5,0.4-1,0.9-1.3l4.3-2.3c0.2-0.1,0.3-0.1,0.5-0.1
	c0.4,0,0.7,0.3,0.7,0.7l0,0v6.2c0,0.5-0.4,1-0.9,1.3l-4.3,2.3C9.5,15.8,9.3,15.9,9.1,15.9z M7.8,7.1C7.5,7.1,7.2,7,6.9,6.9L2.1,4.5
	C1.8,4.3,1.6,4.1,1.6,3.8S1.8,3.2,2.1,3L7,0.5c0.3-0.1,0.6-0.2,0.9-0.2c0.3,0,0.6,0.1,0.9,0.2l4.8,2.4c0.3,0.2,0.5,0.4,0.5,0.7
	c0,0.3-0.2,0.6-0.5,0.7L8.8,6.9C8.5,7,8.1,7.1,7.8,7.1z M13.3,3.6C13.3,3.6,13.3,3.6,13.3,3.6L13.3,3.6L13.3,3.6z"/>
<path class="st0" d="M6.8,15.9c-0.2,0-0.4,0-0.5-0.1l0,0L2,13.5c-0.5-0.3-0.9-0.8-0.9-1.3V6c0-0.4,0.3-0.7,0.7-0.7c0,0,0,0,0,0l0,0
	h0.1c0.2,0,0.4,0,0.5,0.1l0,0l4.3,2.3C7.2,7.9,7.6,8.5,7.6,9v6.2C7.6,15.5,7.3,15.9,6.8,15.9L6.8,15.9L6.8,15.9z"/>
<path class="st2" d="M26.6,9.4l9.9-8.1L21,6L26.6,9.4z M32.7,13.1l3.7-11.8l-9.3,8.4C27.2,9.7,32.7,13.1,32.7,13.1z"/>
<path class="st2" d="M26.7,9.7l0.2,5.2l2.4-3.7C29.2,11.3,26.7,9.7,26.7,9.7z"/>
<path class="st3" d="M54.3,1.9h0.9c0.4,0,0.8,0.4,0.8,0.8v11.4c0,0.4-0.4,0.8-0.8,0.8H43.8c-0.4,0-0.8-0.4-0.8-0.8c0,0,0,0,0,0V2.6
	c0-0.4,0.4-0.8,0.8-0.8h1.3v-1h-1.3c-1,0-1.7,0.8-1.7,1.7c0,0,0,0,0,0v11.4c0,1,0.8,1.7,1.7,1.7c0,0,0,0,0,0h11.4
	c1,0,1.7-0.8,1.7-1.7c0,0,0,0,0,0V2.6c0-1-0.8-1.7-1.7-1.7c0,0,0,0,0,0h-0.9L54.3,1.9L54.3,1.9z M47.9,1.9h3.5v-1h-3.5
	C47.9,0.9,47.9,1.9,47.9,1.9z"/>
<path class="st3" d="M42.6,6.1h13.9v1H42.6V6.1z"/>
<path class="st3" d="M44.8,9.5c0,0.4,0.3,0.7,0.7,0.7c0.4,0,0.7-0.3,0.7-0.7c0-0.4-0.3-0.7-0.7-0.7C45.1,8.8,44.8,9.1,44.8,9.5
	C44.8,9.5,44.8,9.5,44.8,9.5z"/>
<path class="st3" d="M44.8,12.4c0,0.4,0.3,0.7,0.7,0.7c0.4,0,0.7-0.3,0.7-0.7c0-0.4-0.3-0.7-0.7-0.7C45.1,11.7,44.8,12,44.8,12.4
	C44.8,12.4,44.8,12.4,44.8,12.4z"/>
<path class="st3" d="M49.2,12.4c0,0.4,0.3,0.7,0.7,0.7s0.7-0.3,0.7-0.7c0,0,0,0,0,0c0-0.4-0.3-0.7-0.7-0.7
	C49.5,11.7,49.2,12,49.2,12.4C49.2,12.4,49.2,12.4,49.2,12.4z"/>
<path class="st3" d="M49.2,9.5c0,0.4,0.3,0.7,0.7,0.7c0.4,0,0.7-0.3,0.7-0.7c0,0,0,0,0,0c0-0.4-0.3-0.7-0.7-0.7
	C49.5,8.8,49.2,9.1,49.2,9.5C49.2,9.5,49.2,9.5,49.2,9.5z"/>
<path class="st3" d="M52.8,9.5c0,0.4,0.3,0.7,0.7,0.7c0.4,0,0.7-0.3,0.7-0.7c0,0,0,0,0,0c0-0.4-0.3-0.7-0.7-0.7
	C53.1,8.8,52.8,9.1,52.8,9.5z"/>
<path class="st3" d="M46.5,0.1c0.3,0,0.5,0.2,0.5,0.5v2.5c0,0.3-0.2,0.5-0.5,0.5S46,3.4,46,3.1V0.6C46,0.3,46.2,0.1,46.5,0.1z
	 M52.8,0.1c0.3,0,0.5,0.2,0.5,0.5v2.5c0,0.3-0.2,0.5-0.5,0.5s-0.5-0.2-0.5-0.5V0.6C52.4,0.3,52.6,0.1,52.8,0.1z"/>
</svg>
