<svg id="图层_1" data-name="图层 1" xmlns="http://www.w3.org/2000/svg" viewBox="0 0 25 25"><defs><style>.cls-1{fill:#ccd2db;}</style></defs><title>bangzhu</title><path class="cls-1" d="M12.5,25A12.42,12.42,0,0,1,.21,12.5a12.29,12.29,0,1,1,24.58,0A12.42,12.42,0,0,1,12.5,25Zm0-23.15A10.43,10.43,0,0,0,2.07,12.5,10.56,10.56,0,0,0,12.5,23.15,10.56,10.56,0,0,0,22.93,12.5,10.43,10.43,0,0,0,12.5,1.85Z" transform="translate(0.005)"/><path class="cls-1" d="M13.88,13.83,13.5,14a.61.61,0,0,0-.37.57,1.22,1.22,0,0,1,0,.33.62.62,0,0,1-.67.49.64.64,0,0,1-.59-.62,1.92,1.92,0,0,1,1.17-2l.33-.16a2.55,2.55,0,1,0-3.43-2.46,2.29,2.29,0,0,1,0,.25.64.64,0,0,1-.8.43.63.63,0,0,1-.46-.63,3.72,3.72,0,0,1,.94-2.5,3.7,3.7,0,0,1,3.85-1.22,3.72,3.72,0,0,1,2.82,2.94,7,7,0,0,1,.11.8A3.89,3.89,0,0,1,13.88,13.83Zm-2,3.49a.63.63,0,0,1,.63-.64h0a.64.64,0,0,1,.64.64h0V18a.65.65,0,0,1-.64.65h0a.65.65,0,0,1-.65-.64h0v-.64Z" transform="translate(0.005)"/></svg>