<?xml version="1.0" encoding="utf-8"?>
<!-- Generator: Adobe Illustrator 23.0.1, SVG Export Plug-In . SVG Version: 6.00 Build 0)  -->
<svg version="1.1" id="图层_1" xmlns="http://www.w3.org/2000/svg" xmlns:xlink="http://www.w3.org/1999/xlink" x="0px" y="0px"
	 viewBox="0 0 32 32" style="enable-background:new 0 0 32 32;" xml:space="preserve">
<style type="text/css">
	.st0{fill:#FF8500;}
	.st1{fill:#666666;}
	.st2{fill:#CBD4E1;}
</style>
<path class="st0" d="M-335.8,8.5h5.2c0.4,0,0.6,0.2,0.6,0.6v5.2c0,0.4-0.2,0.6-0.6,0.6h-5.2c-0.4,0-0.6-0.2-0.6-0.6V9.1
	C-336.4,8.7-336.2,8.5-335.8,8.5z"/>
<path class="st0" d="M-328,8.5h5.2c0.4,0,0.6,0.2,0.6,0.6v5.2c0,0.4-0.2,0.6-0.6,0.6h-5.2c-0.4,0-0.6-0.2-0.6-0.6V9.1
	C-328.6,8.7-328.4,8.5-328,8.5z"/>
<path class="st0" d="M-335.8,16.2h5.2c0.4,0,0.6,0.2,0.6,0.6V22c0,0.4-0.2,0.6-0.6,0.6h-5.2c-0.4,0-0.6-0.2-0.6-0.6v-5.2
	C-336.4,16.4-336.2,16.2-335.8,16.2z"/>
<path class="st0" d="M-325.1,15.4l3.6,3.6c0.3,0.3,0.3,0.6,0,0.8l-3.6,3.6c-0.3,0.3-0.6,0.3-0.8,0l-3.6-3.6c-0.3-0.3-0.3-0.6,0-0.8
	l3.6-3.6C-325.7,15.1-325.4,15.1-325.1,15.4z"/>
<path class="st0" d="M-294.9,8.4c-3,0-5.4,2.4-5.4,5.3c0,0,0,0.1,0,0.1c0,2.5,3.6,7.5,5,9.5c0.2,0.2,0.5,0.2,0.7,0c0,0,0,0,0,0
	c1.4-1.9,5-7,5-9.5l0-0.1C-289.5,10.8-291.9,8.4-294.9,8.4z M-294.9,16.2c-1.4,0-2.6-1.1-2.6-2.6s1.2-2.6,2.6-2.6
	c1.4,0,2.6,1.1,2.6,2.6S-293.5,16.2-294.9,16.2z"/>
<path class="st1" d="M-238.5,11.6h6.3c0.4,0,0.8-0.4,0.8-0.8c0-0.4-0.4-0.8-0.8-0.8h-6.3c-0.4,0-0.8,0.4-0.8,0.8
	C-239.3,11.2-239,11.6-238.5,11.6z M-238.5,16.6h8.3c0.4,0,0.8-0.4,0.8-0.8c0-0.4-0.3-0.8-0.8-0.8c0,0,0,0,0,0h-8.3
	c-0.4,0-0.8,0.4-0.8,0.8C-239.3,16.2-239,16.5-238.5,16.6z M-238.5,21.5h6.3c0.4,0,0.8-0.4,0.8-0.8c0-0.4-0.4-0.8-0.8-0.8h-6.3
	c-0.4,0-0.8,0.4-0.8,0.8C-239.3,21.1-239,21.4-238.5,21.5z M-247.1,11.6h5.3c0.4,0,0.8-0.4,0.8-0.8c0-0.4-0.4-0.8-0.8-0.8h-5.3
	c-0.4,0-0.8,0.4-0.8,0.8C-247.9,11.2-247.6,11.6-247.1,11.6L-247.1,11.6z M-241,21.3c0-0.4-0.4-0.8-0.8-0.8h-5.4
	c-0.4,0-0.8,0.4-0.8,0.8c0,0.4,0.4,0.8,0.8,0.8h5.3C-241.3,22-241,21.7-241,21.3z"/>
<path class="st1" d="M-229.3,4.8h-12.5c-1.9,0-3.4,1.5-3.4,3.4c0,0,0,0,0,0c0,0.4,0.4,0.8,0.8,0.8c0.4,0,0.8-0.4,0.8-0.8
	c0-1,0.8-1.8,1.8-1.8h12.5c1,0,1.8,0.8,1.8,1.8v15.6c0,1-0.8,1.8-1.8,1.8h-12.5c-1,0-1.8-0.8-1.8-1.8c0-0.4-0.4-0.8-0.8-0.8
	c-0.4,0-0.8,0.4-0.8,0.8c0,1.9,1.5,3.4,3.4,3.4c0,0,0,0,0,0h12.5c1.9,0,3.4-1.5,3.4-3.4c0,0,0,0,0,0V8.2
	C-225.9,6.3-227.5,4.8-229.3,4.8z"/>
<path class="st1" d="M-245.2,13.9v4.2c0,0.4,0.4,0.8,0.8,0.8c0.4,0,0.8-0.4,0.8-0.8v-4.2c0-0.4-0.4-0.8-0.8-0.8
	C-244.9,13.2-245.2,13.5-245.2,13.9z"/>
<path class="st1" d="M-184.5,21.1h-3.7c-0.3,0-0.6-0.3-0.6-0.6c0-0.3,0.3-0.6,0.6-0.6h3.2V10c0-0.3-0.3-0.6-0.6-0.6h-9.3
	c-0.3,0-0.6,0.3-0.6,0.6c0,0.3-0.3,0.6-0.6,0.6h-1.4c-0.3,0-0.6-0.3-0.6-0.6c0-0.3,0.2-0.6,0.6-0.6h0.9c0.2-0.7,0.9-1.2,1.6-1.2h9.3
	c1,0,1.7,0.8,1.7,1.8v10.5C-183.9,20.8-184.1,21.1-184.5,21.1z M-192.2,21.1h-2.6c-1,0-1.7-0.8-1.7-1.8c0-0.3,0.3-0.6,0.6-0.6
	c0.3,0,0.6,0.3,0.6,0.6s0.3,0.6,0.6,0.6h2.6c0.3,0,0.6,0.3,0.6,0.6C-191.7,20.8-191.9,21.1-192.2,21.1z"/>
<path class="st1" d="M-178,21.1h-0.8c-0.3,0-0.6-0.3-0.6-0.6c0-0.3,0.3-0.6,0.6-0.6h0.8v-3.6l-2.2-3.3h-3.6v7h0.9
	c0.3,0,0.6,0.3,0.6,0.6c0,0.3-0.3,0.6-0.6,0.6h-1.5c-0.3,0-0.6-0.3-0.6-0.6v-8.2c0-0.3,0.3-0.6,0.6-0.6h4.1c0.4,0,0.7,0.2,1,0.5
	l2.2,3.3c0.1,0.2,0.2,0.4,0.2,0.7v3.7C-176.9,20.5-177.4,21.1-178,21.1z M-190.2,23.1c-1.4,0-2.6-1.2-2.6-2.6c0-1.4,1.2-2.6,2.6-2.6
	s2.6,1.2,2.6,2.6C-187.6,21.9-188.8,23.1-190.2,23.1z M-190.2,19.1c-0.8,0-1.5,0.7-1.5,1.5s0.7,1.5,1.5,1.5c0.8,0,1.5-0.7,1.5-1.5
	C-188.8,19.7-189.4,19.1-190.2,19.1z"/>
<path class="st1" d="M-180.8,23.1c-1.4,0-2.6-1.2-2.6-2.6c0-1.4,1.2-2.6,2.6-2.6c1.4,0,2.6,1.2,2.6,2.6
	C-178.2,21.9-179.4,23.1-180.8,23.1z M-180.8,19.1c-0.8,0-1.5,0.7-1.5,1.5s0.7,1.5,1.5,1.5c0.8,0,1.5-0.7,1.5-1.5
	S-180,19.1-180.8,19.1z M-194.2,12.7h-2.7c-0.3,0-0.6-0.3-0.6-0.6c0-0.3,0.3-0.6,0.6-0.6h2.7c0.3,0,0.6,0.3,0.6,0.6
	C-193.6,12.4-193.9,12.7-194.2,12.7z M-195.5,17.3h-2.7c-0.3,0-0.6-0.3-0.6-0.6c0-0.3,0.3-0.6,0.6-0.6h2.7c0.3,0,0.6,0.3,0.6,0.6
	C-194.9,17.1-195.1,17.3-195.5,17.3z M-191.6,14.8h-7.9c-0.3,0-0.6-0.3-0.6-0.6c0-0.3,0.3-0.6,0.6-0.6h7.9c0.3,0,0.6,0.3,0.6,0.6
	C-191,14.5-191.3,14.8-191.6,14.8z M-178.7,15h-3.5c-0.3,0-0.6-0.3-0.6-0.6c0-0.3,0.3-0.6,0.6-0.6h3.5c0.3,0,0.6,0.3,0.6,0.6
	C-178.1,14.7-178.3,15-178.7,15z"/>
<path class="st1" d="M-131.7,27.4h-16.6c-1.6,0-2.9-1.3-2.9-2.9V7.6c0-1.6,1.3-2.9,2.9-2.9h16.6c1.6,0,2.9,1.3,2.9,2.9v16.9
	C-128.8,26-130.1,27.4-131.7,27.4z M-148.4,6.3c-0.7,0-1.3,0.6-1.3,1.3v16.9c0,0.7,0.6,1.3,1.3,1.3h16.6c0.7,0,1.3-0.6,1.3-1.3V7.6
	c0-0.7-0.6-1.3-1.3-1.3C-131.7,6.3-148.4,6.3-148.4,6.3z"/>
<path class="st1" d="M-146.9,10.3c0,0.5,0.4,0.9,0.9,0.9c0.5,0,0.9-0.4,0.9-0.9c0-0.5-0.4-0.9-0.9-0.9
	C-146.5,9.4-146.9,9.8-146.9,10.3z M-133.1,11.1h-10.7c-0.5,0-0.8-0.4-0.8-0.8s0.4-0.8,0.8-0.8h10.7c0.5,0,0.8,0.4,0.8,0.8
	S-132.6,11.1-133.1,11.1z M-146.9,15.9c0,0.5,0.4,0.9,0.9,0.9c0.5,0,0.9-0.4,0.9-0.9c0-0.5-0.4-0.9-0.9-0.9
	C-146.5,15-146.9,15.4-146.9,15.9z M-133.1,16.8h-10.7c-0.5,0-0.8-0.4-0.8-0.8c0-0.5,0.4-0.8,0.8-0.8h10.7c0.5,0,0.8,0.4,0.8,0.8
	C-132.3,16.4-132.6,16.8-133.1,16.8z M-146.9,21.6c0,0.5,0.4,0.9,0.9,0.9c0.5,0,0.9-0.4,0.9-0.9c0-0.5-0.4-0.9-0.9-0.9
	C-146.5,20.7-146.9,21.1-146.9,21.6z M-133.1,22.4h-10.7c-0.5,0-0.8-0.4-0.8-0.8c0-0.5,0.4-0.8,0.8-0.8h10.7c0.5,0,0.8,0.4,0.8,0.8
	C-132.3,22-132.6,22.4-133.1,22.4z"/>
<path class="st1" d="M-83.1,25h-15.9c-2,0-3.6-1.4-3.6-3.2v-8.9c0-0.4,0.3-0.6,0.7-0.6s0.7,0.3,0.7,0.6v8.9c0,1.1,1,1.9,2.2,1.9
	h15.9c1.2,0,2.2-0.9,2.2-1.9v-8.9c0-0.4,0.3-0.6,0.7-0.6c0.4,0,0.7,0.3,0.7,0.6v8.9C-79.5,23.6-81.1,25-83.1,25L-83.1,25z"/>
<path class="st1" d="M-91,18.1l-2.6-2.3c0.7-0.3,1.1-1,1.1-1.7V11h2.9v3.2c0,0.7,0.5,1.3,1.1,1.7L-91,18.1z M-91,19.7
	c0.2,0,0.4-0.1,0.5-0.2l4.7-4.2c0.3-0.2,0.2-0.5-0.2-0.5h-1.4c-0.4,0-0.7-0.3-0.7-0.6v-3.8c0-0.4-0.3-0.6-0.7-0.6h-4.3
	c-0.4,0-0.7,0.3-0.7,0.6v3.8c0,0.4-0.3,0.6-0.7,0.6h-1.4c-0.4,0-0.5,0.2-0.2,0.5l4.7,4.2C-91.4,19.6-91.2,19.7-91,19.7z M-93.9,7.8
	c0-0.4,0.3-0.6,0.7-0.6c0.4,0,0.7,0.3,0.7,0.6c0,0.4-0.3,0.6-0.7,0.6c0,0,0,0,0,0C-93.6,8.4-93.9,8.1-93.9,7.8
	C-93.9,7.8-93.9,7.8-93.9,7.8z M-89.6,7.8c0-0.4,0.3-0.6,0.7-0.6s0.7,0.3,0.7,0.6c0,0.4-0.3,0.6-0.7,0.6c0,0,0,0,0,0
	C-89.2,8.4-89.6,8.1-89.6,7.8C-89.6,7.8-89.6,7.8-89.6,7.8z"/>
<path class="st1" d="M-93.2,7.2h4.3v1.3h-4.3V7.2z"/>
<path class="st2" d="M-13.6,0.6h-5c-0.4,0-0.6,0.5-0.6,0.5l-1.6,2.6c0,0-0.1,0.2-0.2,0.2c0,0-0.2,0-0.2,0h-11.6c0,0-0.1,0-0.1,0
	c0,0-0.1-0.1-0.1-0.1l-1.6-2.7c0,0-0.2-0.5-0.6-0.5h-4.9c-0.8,0-1.4,0.6-1.4,1.4v27.9c0,0.8,0.6,1.4,1.4,1.4c0,0,0,0,0,0h26.6
	c0.8,0,1.4-0.6,1.4-1.4c0,0,0,0,0,0V2C-12.2,1.2-12.8,0.6-13.6,0.6z M-18.5,23.8c0,0.2-0.2,0.4-0.4,0.4c0,0,0,0,0,0h-15.9
	c-0.2,0-0.4-0.2-0.4-0.4v-0.3c0-0.2,0.2-0.4,0.4-0.4c0,0,0,0,0,0h15.9c0.2,0,0.4,0.2,0.4,0.4c0,0,0,0,0,0
	C-18.5,23.5-18.5,23.8-18.5,23.8z M-18.5,18c0,0.2-0.2,0.4-0.4,0.4c0,0,0,0,0,0h-15.9c-0.2,0-0.4-0.2-0.4-0.4v-0.3
	c0-0.2,0.2-0.4,0.4-0.4c0,0,0,0,0,0h15.9c0.2,0,0.4,0.2,0.4,0.4c0,0,0,0,0,0C-18.5,17.7-18.5,18-18.5,18z M-18.5,12.2
	c0,0.2-0.2,0.4-0.4,0.4c0,0,0,0,0,0h-15.9c-0.2,0-0.4-0.2-0.4-0.4l0,0v-0.3c0-0.2,0.2-0.4,0.4-0.4l0,0h15.9c0.2,0,0.4,0.2,0.4,0.4
	c0,0,0,0,0,0C-18.5,11.9-18.5,12.2-18.5,12.2z"/>
<path class="st2" d="M-31.3,1.7h8.9c0.2,0,0.4-0.2,0.4-0.4c0,0,0,0,0,0V1c0-0.2-0.2-0.4-0.4-0.4l0,0h-8.9c-0.2,0-0.4,0.2-0.4,0.4
	l0,0v0.3C-31.7,1.5-31.5,1.7-31.3,1.7C-31.3,1.7-31.3,1.7-31.3,1.7z"/>
<path class="st2" d="M28.7,7H3.2L0.5,14c0,2.1,1.7,3.8,3.8,3.8c2.1,0,3.9-1.7,3.9-3.8c0,2.1,1.7,3.8,3.8,3.8S16,16.1,16,14
	c0,2.1,1.7,3.8,3.8,3.8s3.8-1.7,3.8-3.8c0,2.1,1.7,3.8,3.9,3.8c2.1,0,3.9-1.7,3.9-3.8C31.5,14,28.7,7,28.7,7z"/>
<path class="st2" d="M26.6,18.9v8.8H5.4v-8.8H3.2v9.3C3.2,29,4.1,30,4.9,30h22.2c0.8,0,1.7-1,1.7-1.8v-9.3
	C28.8,18.9,26.6,18.9,26.6,18.9z"/>
<path class="st2" d="M28.7,7L28.7,7L28.7,7z"/>
<path class="st2" d="M5,5.2h22.1c0.8,0,1.3-0.6,1.3-1.3s-0.6-1.3-1.3-1.3H5c-0.8,0-1.3,0.6-1.3,1.3S4.2,5.2,5,5.2z"/>
</svg>
