<?xml version="1.0" encoding="utf-8"?>
<!-- Generator: Adobe Illustrator 23.0.1, SVG Export Plug-In . SVG Version: 6.00 Build 0)  -->
<svg version="1.1" id="图层_1" xmlns="http://www.w3.org/2000/svg" xmlns:xlink="http://www.w3.org/1999/xlink" x="0px" y="0px"
	 viewBox="0 0 16 16" style="enable-background:new 0 0 16 16;" xml:space="preserve">
<style type="text/css">
	.st0{fill:#FF8500;}
	.st1{fill:none;stroke:#FFFFFF;stroke-linecap:round;stroke-linejoin:round;stroke-miterlimit:10;}
	.st2{fill:#FFFFFF;}
	.st3{fill:#DDE6F0;}
</style>
<path class="st0" d="M-80.3,13.9c-3.8,0-6.9-3.1-6.9-6.9c0-3.8,3.1-6.9,6.9-6.9s6.9,3.1,6.9,6.9C-73.4,10.8-76.5,13.9-80.3,13.9z
	 M-80.3,1.2c-3.2,0-5.8,2.6-5.8,5.8s2.6,5.8,5.8,5.8s5.8-2.6,5.8-5.8S-77.1,1.2-80.3,1.2z"/>
<path class="st0" d="M-71.9,15.9c-0.1,0-0.3-0.1-0.4-0.2l-3.6-3.6c-0.2-0.2-0.2-0.6,0-0.8c0.2-0.2,0.6-0.2,0.8,0l3.6,3.6
	c0.2,0.2,0.2,0.6,0,0.8C-71.7,15.8-71.8,15.9-71.9,15.9z"/>
<path class="st0" d="M-51.6,15.8h-11c-0.4,0-0.7-0.3-0.7-0.7V0.9c0-0.4,0.3-0.7,0.7-0.7h11c0.4,0,0.7,0.3,0.7,0.7v14.2
	C-50.9,15.5-51.2,15.8-51.6,15.8z"/>
<line class="st1" x1="-61" y1="4.2" x2="-53.3" y2="4.2"/>
<line class="st1" x1="-61" y1="7.7" x2="-53.3" y2="7.7"/>
<line class="st1" x1="-61" y1="11.3" x2="-53.3" y2="11.3"/>
<path class="st0" d="M-32.3,15.9c-0.4,0-0.7-0.3-0.7-0.7c0,0,0,0,0,0V9c0-0.5,0.4-1,0.9-1.3l4.3-2.3c0.2-0.1,0.3-0.1,0.5-0.1
	c0.4,0,0.7,0.3,0.7,0.7l0,0v6.2c0,0.5-0.4,1-0.9,1.3l-4.3,2.3C-32,15.8-32.2,15.9-32.3,15.9z M-33.7,7.1c-0.3,0-0.6-0.1-0.9-0.2
	l-4.8-2.4c-0.3-0.2-0.5-0.4-0.5-0.7s0.2-0.6,0.5-0.7l4.9-2.5c0.3-0.1,0.6-0.2,0.9-0.2c0.3,0,0.6,0.1,0.9,0.2l4.8,2.4
	c0.3,0.2,0.5,0.4,0.5,0.7s-0.2,0.6-0.5,0.7l-4.9,2.5C-33,7-33.3,7.1-33.7,7.1z M-28.2,3.6C-28.2,3.6-28.2,3.6-28.2,3.6L-28.2,3.6
	L-28.2,3.6z"/>
<path class="st0" d="M-34.7,15.9c-0.2,0-0.4,0-0.5-0.1l0,0l-4.3-2.3c-0.5-0.3-0.9-0.8-0.9-1.3V6c0-0.4,0.3-0.7,0.7-0.7c0,0,0,0,0,0
	l0,0h0.1c0.2,0,0.4,0,0.5,0.1l0,0l4.3,2.3c0.5,0.3,0.9,0.8,0.9,1.3v6.2C-33.9,15.5-34.2,15.9-34.7,15.9L-34.7,15.9L-34.7,15.9z"/>
<path class="st2" d="M-14.9,9.4L-5,1.3L-20.4,6L-14.9,9.4z M-8.7,13.1L-5,1.3l-9.3,8.4C-14.3,9.7-8.7,13.1-8.7,13.1z"/>
<path class="st2" d="M-14.8,9.7l0.2,5.2l2.4-3.7C-12.2,11.3-14.8,9.7-14.8,9.7z"/>
<path class="st3" d="M12.8,1.9h0.9c0.4,0,0.8,0.4,0.8,0.8v11.4c0,0.4-0.4,0.8-0.8,0.8H2.3c-0.4,0-0.8-0.4-0.8-0.8c0,0,0,0,0,0V2.6
	c0-0.4,0.4-0.8,0.8-0.8h1.3v-1H2.3c-1,0-1.7,0.8-1.7,1.7c0,0,0,0,0,0v11.4c0,1,0.8,1.7,1.7,1.7c0,0,0,0,0,0h11.4
	c1,0,1.7-0.8,1.7-1.7c0,0,0,0,0,0V2.6c0-1-0.8-1.7-1.7-1.7c0,0,0,0,0,0h-0.9L12.8,1.9L12.8,1.9z M6.5,1.9h3.5v-1H6.5
	C6.5,0.9,6.5,1.9,6.5,1.9z"/>
<path class="st3" d="M1.1,6.1H15v1H1.1V6.1z"/>
<path class="st3" d="M3.3,9.5c0,0.4,0.3,0.7,0.7,0.7s0.7-0.3,0.7-0.7c0-0.4-0.3-0.7-0.7-0.7C3.7,8.8,3.3,9.1,3.3,9.5
	C3.3,9.5,3.3,9.5,3.3,9.5z"/>
<path class="st3" d="M3.3,12.4c0,0.4,0.3,0.7,0.7,0.7s0.7-0.3,0.7-0.7c0-0.4-0.3-0.7-0.7-0.7C3.7,11.7,3.3,12,3.3,12.4
	C3.3,12.4,3.3,12.4,3.3,12.4z"/>
<path class="st3" d="M7.7,12.4c0,0.4,0.3,0.7,0.7,0.7c0.4,0,0.7-0.3,0.7-0.7c0,0,0,0,0,0c0-0.4-0.3-0.7-0.7-0.7
	C8,11.7,7.7,12,7.7,12.4C7.7,12.4,7.7,12.4,7.7,12.4z"/>
<path class="st3" d="M7.7,9.5c0,0.4,0.3,0.7,0.7,0.7c0.4,0,0.7-0.3,0.7-0.7c0,0,0,0,0,0c0-0.4-0.3-0.7-0.7-0.7
	C8,8.8,7.7,9.1,7.7,9.5C7.7,9.5,7.7,9.5,7.7,9.5z"/>
<path class="st3" d="M11.3,9.5c0,0.4,0.3,0.7,0.7,0.7c0.4,0,0.7-0.3,0.7-0.7c0,0,0,0,0,0c0-0.4-0.3-0.7-0.7-0.7
	C11.6,8.8,11.3,9.1,11.3,9.5z"/>
<path class="st3" d="M5,0.1c0.3,0,0.5,0.2,0.5,0.5v2.5c0,0.3-0.2,0.5-0.5,0.5S4.6,3.4,4.6,3.1V0.6C4.6,0.3,4.8,0.1,5,0.1z M11.4,0.1
	c0.3,0,0.5,0.2,0.5,0.5v2.5c0,0.3-0.2,0.5-0.5,0.5c-0.3,0-0.5-0.2-0.5-0.5V0.6C10.9,0.3,11.1,0.1,11.4,0.1z"/>
</svg>
