<?xml version="1.0" encoding="utf-8"?>
<!-- Generator: Adobe Illustrator 23.0.1, SVG Export Plug-In . SVG Version: 6.00 Build 0)  -->
<svg version="1.1" id="图层_1" xmlns="http://www.w3.org/2000/svg" xmlns:xlink="http://www.w3.org/1999/xlink" x="0px" y="0px"
	 viewBox="0 0 24 24" style="enable-background:new 0 0 24 24;" xml:space="preserve">
<style type="text/css">
	.st0{fill:#FF8500;}
	.st1{fill:#666666;}
</style>
<path class="st0" d="M-135.3,4.5h5.2c0.4,0,0.6,0.2,0.6,0.6v5.2c0,0.4-0.2,0.6-0.6,0.6h-5.2c-0.4,0-0.6-0.2-0.6-0.6V5.1
	C-135.9,4.7-135.7,4.5-135.3,4.5z"/>
<path class="st0" d="M-127.6,4.5h5.2c0.4,0,0.6,0.2,0.6,0.6v5.2c0,0.4-0.2,0.6-0.6,0.6h-5.2c-0.4,0-0.6-0.2-0.6-0.6V5.1
	C-128.2,4.7-128,4.5-127.6,4.5z"/>
<path class="st0" d="M-135.3,12.2h5.2c0.4,0,0.6,0.2,0.6,0.6V18c0,0.4-0.2,0.6-0.6,0.6h-5.2c-0.4,0-0.6-0.2-0.6-0.6v-5.2
	C-135.9,12.4-135.7,12.2-135.3,12.2z"/>
<path class="st0" d="M-124.7,11.4l3.6,3.6c0.3,0.3,0.3,0.6,0,0.8l-3.6,3.6c-0.3,0.3-0.6,0.3-0.8,0l-3.6-3.6c-0.3-0.3-0.3-0.6,0-0.8
	l3.6-3.6C-125.3,11.1-125,11.1-124.7,11.4z"/>
<path class="st0" d="M-94.5,4.4c-3,0-5.4,2.4-5.4,5.3c0,0,0,0.1,0,0.1c0,2.5,3.6,7.5,5,9.5c0.2,0.2,0.5,0.2,0.7,0c0,0,0,0,0,0
	c1.4-1.9,5-7,5-9.5l0-0.1C-89.1,6.8-91.5,4.4-94.5,4.4z M-94.5,12.2c-1.4,0-2.6-1.1-2.6-2.6s1.2-2.6,2.6-2.6c1.4,0,2.6,1.1,2.6,2.6
	S-93,12.2-94.5,12.2z"/>
<path class="st1" d="M-38.1,7.6h6.3c0.4,0,0.8-0.4,0.8-0.8c0-0.4-0.4-0.8-0.8-0.8h-6.3c-0.4,0-0.8,0.4-0.8,0.8
	C-38.9,7.2-38.5,7.6-38.1,7.6z M-38.1,12.6h8.3c0.4,0,0.8-0.4,0.8-0.8c0-0.4-0.3-0.8-0.8-0.8c0,0,0,0,0,0h-8.3
	c-0.4,0-0.8,0.4-0.8,0.8C-38.9,12.2-38.5,12.5-38.1,12.6z M-38.1,17.5h6.3c0.4,0,0.8-0.4,0.8-0.8c0-0.4-0.4-0.8-0.8-0.8h-6.3
	c-0.4,0-0.8,0.4-0.8,0.8C-38.9,17.1-38.5,17.4-38.1,17.5z M-46.7,7.6h5.3c0.4,0,0.8-0.4,0.8-0.8c0-0.4-0.4-0.8-0.8-0.8h-5.3
	c-0.4,0-0.8,0.4-0.8,0.8C-47.5,7.2-47.1,7.6-46.7,7.6L-46.7,7.6z M-40.5,17.3c0-0.4-0.4-0.8-0.8-0.8h-5.4c-0.4,0-0.8,0.4-0.8,0.8
	c0,0.4,0.4,0.8,0.8,0.8h5.3C-40.9,18-40.5,17.7-40.5,17.3z"/>
<path class="st1" d="M-28.8,0.8h-12.5c-1.9,0-3.4,1.5-3.4,3.4c0,0,0,0,0,0c0,0.4,0.4,0.8,0.8,0.8c0.4,0,0.8-0.4,0.8-0.8
	c0-1,0.8-1.8,1.8-1.8h12.5c1,0,1.8,0.8,1.8,1.8v15.6c0,1-0.8,1.8-1.8,1.8h-12.5c-1,0-1.8-0.8-1.8-1.8c0-0.4-0.4-0.8-0.8-0.8
	c-0.4,0-0.8,0.4-0.8,0.8c0,1.9,1.5,3.4,3.4,3.4c0,0,0,0,0,0h12.5c1.9,0,3.4-1.5,3.4-3.4c0,0,0,0,0,0V4.2C-25.5,2.3-27,0.8-28.8,0.8z
	"/>
<path class="st1" d="M-44.8,9.9v4.2c0,0.4,0.4,0.8,0.8,0.8c0.4,0,0.8-0.4,0.8-0.8V9.9c0-0.4-0.4-0.8-0.8-0.8
	C-44.4,9.2-44.7,9.5-44.8,9.9z"/>
<path class="st1" d="M16,17.1h-3.7c-0.3,0-0.6-0.3-0.6-0.6c0-0.3,0.3-0.6,0.6-0.6h3.2V6c0-0.3-0.3-0.6-0.6-0.6H5.6
	C5.2,5.4,5,5.7,5,6c0,0.3-0.3,0.6-0.6,0.6H3C2.7,6.6,2.5,6.3,2.5,6c0-0.3,0.2-0.6,0.6-0.6h0.9c0.2-0.7,0.9-1.2,1.6-1.2h9.3
	c1,0,1.7,0.8,1.7,1.8v10.5C16.6,16.8,16.3,17.1,16,17.1z M8.2,17.1H5.6c-1,0-1.7-0.8-1.7-1.8c0-0.3,0.3-0.6,0.6-0.6S5,15,5,15.3
	s0.3,0.6,0.6,0.6h2.6c0.3,0,0.6,0.3,0.6,0.6C8.7,16.8,8.5,17.1,8.2,17.1z"/>
<path class="st1" d="M22.4,17.1h-0.8c-0.3,0-0.6-0.3-0.6-0.6c0-0.3,0.3-0.6,0.6-0.6h0.8v-3.6l-2.2-3.3h-3.6v7h0.9
	c0.3,0,0.6,0.3,0.6,0.6c0,0.3-0.3,0.6-0.6,0.6H16c-0.3,0-0.6-0.3-0.6-0.6V8.4c0-0.3,0.3-0.6,0.6-0.6h4.1c0.4,0,0.7,0.2,1,0.5
	l2.2,3.3c0.1,0.2,0.2,0.4,0.2,0.7v3.7C23.6,16.5,23,17.1,22.4,17.1z M10.3,19.1c-1.4,0-2.6-1.2-2.6-2.6c0-1.4,1.2-2.6,2.6-2.6
	s2.6,1.2,2.6,2.6C12.9,17.9,11.7,19.1,10.3,19.1z M10.3,15.1c-0.8,0-1.5,0.7-1.5,1.5S9.5,18,10.3,18s1.5-0.7,1.5-1.5
	C11.7,15.7,11.1,15.1,10.3,15.1z"/>
<path class="st1" d="M19.6,19.1c-1.4,0-2.6-1.2-2.6-2.6c0-1.4,1.2-2.6,2.6-2.6c1.4,0,2.6,1.2,2.6,2.6C22.2,17.9,21,19.1,19.6,19.1z
	 M19.6,15.1c-0.8,0-1.5,0.7-1.5,1.5s0.7,1.5,1.5,1.5c0.8,0,1.5-0.7,1.5-1.5S20.4,15.1,19.6,15.1z M6.3,8.7H3.6C3.3,8.7,3,8.4,3,8.1
	c0-0.3,0.3-0.6,0.6-0.6h2.7c0.3,0,0.6,0.3,0.6,0.6C6.8,8.4,6.6,8.7,6.3,8.7z M5,13.3H2.3c-0.3,0-0.6-0.3-0.6-0.6
	c0-0.3,0.3-0.6,0.6-0.6H5c0.3,0,0.6,0.3,0.6,0.6C5.6,13.1,5.3,13.3,5,13.3z M8.8,10.8H0.9c-0.3,0-0.6-0.3-0.6-0.6
	c0-0.3,0.3-0.6,0.6-0.6h7.9c0.3,0,0.6,0.3,0.6,0.6C9.4,10.5,9.1,10.8,8.8,10.8z M21.8,11h-3.5c-0.3,0-0.6-0.3-0.6-0.6
	c0-0.3,0.3-0.6,0.6-0.6h3.5c0.3,0,0.6,0.3,0.6,0.6C22.4,10.7,22.1,11,21.8,11z"/>
</svg>
