<svg id="图层_1" data-name="图层 1" xmlns="http://www.w3.org/2000/svg" viewBox="0 0 223.42 66.66"><defs><style>.cls-1{fill:#f08218;}.cls-2{fill:#fff;}.cls-3{font-size:41.01px;fill:#040000;font-family:ProximaNova-Bold, Proxima Nova;font-weight:700;}</style></defs><title>logo</title><path class="cls-1" d="M56.87,35.1A33.33,33.33,0,0,0,23.54,1.77c-2,0-9.64.08-10.62.08A10.91,10.91,0,0,0,2.64,9.13c-.33.27-.56,51.47-.34,51.65a10.9,10.9,0,0,0,10.38,7.58c1.34,0,8.43.07,10.86.07A33.33,33.33,0,0,0,56.87,35.1Z" transform="translate(-2.21 -1.77)"/><path class="cls-2" d="M51.14,32.63l-8.27-9a2.94,2.94,0,0,0-2.27-1.13H11.46a3.35,3.35,0,0,0-3.11,3.55v18a3.35,3.35,0,0,0,3.11,3.55H40.34a3,3,0,0,0,2.54-1.5l8.29-9.26A3.15,3.15,0,0,0,51.14,32.63Zm-8.63,4.82a2.35,2.35,0,1,1,2.34-2.35A2.35,2.35,0,0,1,42.51,37.45Z" transform="translate(-2.21 -1.77)"/><text class="cls-3" transform="translate(65.69 46.11)">Dropshe</text></svg>