<?xml version="1.0" encoding="utf-8"?>
<!-- Generator: Adobe Illustrator 23.0.1, SVG Export Plug-In . SVG Version: 6.00 Build 0)  -->
<svg version="1.1" id="图层_1" xmlns="http://www.w3.org/2000/svg" xmlns:xlink="http://www.w3.org/1999/xlink" x="0px" y="0px"
	 viewBox="0 0 24 24" style="enable-background:new 0 0 24 24;" xml:space="preserve">
<style type="text/css">
	.st0{fill:#FF8500;}
	.st1{fill:#666666;}
</style>
<path class="st0" d="M-232.8,4.5h5.2c0.4,0,0.6,0.2,0.6,0.6v5.2c0,0.4-0.2,0.6-0.6,0.6h-5.2c-0.4,0-0.6-0.2-0.6-0.6V5.1
	C-233.4,4.7-233.2,4.5-232.8,4.5z"/>
<path class="st0" d="M-225.1,4.5h5.2c0.4,0,0.6,0.2,0.6,0.6v5.2c0,0.4-0.2,0.6-0.6,0.6h-5.2c-0.4,0-0.6-0.2-0.6-0.6V5.1
	C-225.7,4.7-225.5,4.5-225.1,4.5z"/>
<path class="st0" d="M-232.8,12.2h5.2c0.4,0,0.6,0.2,0.6,0.6V18c0,0.4-0.2,0.6-0.6,0.6h-5.2c-0.4,0-0.6-0.2-0.6-0.6v-5.2
	C-233.4,12.4-233.2,12.2-232.8,12.2z"/>
<path class="st0" d="M-222.2,11.4l3.6,3.6c0.3,0.3,0.3,0.6,0,0.8l-3.6,3.6c-0.3,0.3-0.6,0.3-0.8,0l-3.6-3.6c-0.3-0.3-0.3-0.6,0-0.8
	l3.6-3.6C-222.7,11.1-222.5,11.1-222.2,11.4z"/>
<path class="st0" d="M-191.9,4.4c-3,0-5.4,2.4-5.4,5.3c0,0,0,0.1,0,0.1c0,2.5,3.6,7.5,5,9.5c0.2,0.2,0.5,0.2,0.7,0c0,0,0,0,0,0
	c1.4-1.9,5-7,5-9.5l0-0.1C-186.5,6.8-189,4.4-191.9,4.4z M-191.9,12.2c-1.4,0-2.6-1.1-2.6-2.6s1.2-2.6,2.6-2.6
	c1.4,0,2.6,1.1,2.6,2.6S-190.5,12.2-191.9,12.2z"/>
<path class="st1" d="M-135.6,7.6h6.3c0.4,0,0.8-0.4,0.8-0.8c0-0.4-0.4-0.8-0.8-0.8h-6.3c-0.4,0-0.8,0.4-0.8,0.8
	C-136.3,7.2-136,7.6-135.6,7.6z M-135.6,12.6h8.3c0.4,0,0.8-0.4,0.8-0.8c0-0.4-0.3-0.8-0.8-0.8c0,0,0,0,0,0h-8.3
	c-0.4,0-0.8,0.4-0.8,0.8C-136.3,12.2-136,12.5-135.6,12.6z M-135.6,17.5h6.3c0.4,0,0.8-0.4,0.8-0.8c0-0.4-0.4-0.8-0.8-0.8h-6.3
	c-0.4,0-0.8,0.4-0.8,0.8C-136.3,17.1-136,17.4-135.6,17.5z M-144.2,7.6h5.3c0.4,0,0.8-0.4,0.8-0.8c0-0.4-0.4-0.8-0.8-0.8h-5.3
	c-0.4,0-0.8,0.4-0.8,0.8C-144.9,7.2-144.6,7.6-144.2,7.6L-144.2,7.6z M-138,17.3c0-0.4-0.4-0.8-0.8-0.8h-5.4c-0.4,0-0.8,0.4-0.8,0.8
	c0,0.4,0.4,0.8,0.8,0.8h5.3C-138.4,18-138,17.7-138,17.3z"/>
<path class="st1" d="M-126.3,0.8h-12.5c-1.9,0-3.4,1.5-3.4,3.4c0,0,0,0,0,0c0,0.4,0.4,0.8,0.8,0.8c0.4,0,0.8-0.4,0.8-0.8
	c0-1,0.8-1.8,1.8-1.8h12.5c1,0,1.8,0.8,1.8,1.8v15.6c0,1-0.8,1.8-1.8,1.8h-12.5c-1,0-1.8-0.8-1.8-1.8c0-0.4-0.4-0.8-0.8-0.8
	c-0.4,0-0.8,0.4-0.8,0.8c0,1.9,1.5,3.4,3.4,3.4c0,0,0,0,0,0h12.5c1.9,0,3.4-1.5,3.4-3.4c0,0,0,0,0,0V4.2
	C-122.9,2.3-124.5,0.8-126.3,0.8z"/>
<path class="st1" d="M-142.2,9.9v4.2c0,0.4,0.4,0.8,0.8,0.8c0.4,0,0.8-0.4,0.8-0.8V9.9c0-0.4-0.4-0.8-0.8-0.8
	C-141.9,9.2-142.2,9.5-142.2,9.9z"/>
<path class="st1" d="M-81.5,17.1h-3.7c-0.3,0-0.6-0.3-0.6-0.6c0-0.3,0.3-0.6,0.6-0.6h3.2V6c0-0.3-0.3-0.6-0.6-0.6h-9.3
	c-0.3,0-0.6,0.3-0.6,0.6c0,0.3-0.3,0.6-0.6,0.6h-1.4C-94.8,6.6-95,6.3-95,6c0-0.3,0.2-0.6,0.6-0.6h0.9c0.2-0.7,0.9-1.2,1.6-1.2h9.3
	c1,0,1.7,0.8,1.7,1.8v10.5C-80.9,16.8-81.2,17.1-81.5,17.1z M-89.3,17.1h-2.6c-1,0-1.7-0.8-1.7-1.8c0-0.3,0.3-0.6,0.6-0.6
	c0.3,0,0.6,0.3,0.6,0.6s0.3,0.6,0.6,0.6h2.6c0.3,0,0.6,0.3,0.6,0.6C-88.7,16.8-89,17.1-89.3,17.1z"/>
<path class="st1" d="M-75.1,17.1h-0.8c-0.3,0-0.6-0.3-0.6-0.6c0-0.3,0.3-0.6,0.6-0.6h0.8v-3.6l-2.2-3.3h-3.6v7h0.9
	c0.3,0,0.6,0.3,0.6,0.6c0,0.3-0.3,0.6-0.6,0.6h-1.5c-0.3,0-0.6-0.3-0.6-0.6V8.4c0-0.3,0.3-0.6,0.6-0.6h4.1c0.4,0,0.7,0.2,1,0.5
	l2.2,3.3c0.1,0.2,0.2,0.4,0.2,0.7v3.7C-73.9,16.5-74.4,17.1-75.1,17.1z M-87.2,19.1c-1.4,0-2.6-1.2-2.6-2.6c0-1.4,1.2-2.6,2.6-2.6
	s2.6,1.2,2.6,2.6C-84.6,17.9-85.8,19.1-87.2,19.1z M-87.2,15.1c-0.8,0-1.5,0.7-1.5,1.5S-88,18-87.2,18s1.5-0.7,1.5-1.5
	C-85.8,15.7-86.4,15.1-87.2,15.1z"/>
<path class="st1" d="M-77.9,19.1c-1.4,0-2.6-1.2-2.6-2.6c0-1.4,1.2-2.6,2.6-2.6c1.4,0,2.6,1.2,2.6,2.6
	C-75.2,17.9-76.4,19.1-77.9,19.1z M-77.9,15.1c-0.8,0-1.5,0.7-1.5,1.5s0.7,1.5,1.5,1.5c0.8,0,1.5-0.7,1.5-1.5S-77.1,15.1-77.9,15.1z
	 M-91.2,8.7h-2.7c-0.3,0-0.6-0.3-0.6-0.6c0-0.3,0.3-0.6,0.6-0.6h2.7c0.3,0,0.6,0.3,0.6,0.6C-90.6,8.4-90.9,8.7-91.2,8.7z
	 M-92.5,13.3h-2.7c-0.3,0-0.6-0.3-0.6-0.6c0-0.3,0.3-0.6,0.6-0.6h2.7c0.3,0,0.6,0.3,0.6,0.6C-91.9,13.1-92.1,13.3-92.5,13.3z
	 M-88.7,10.8h-7.9c-0.3,0-0.6-0.3-0.6-0.6c0-0.3,0.3-0.6,0.6-0.6h7.9c0.3,0,0.6,0.3,0.6,0.6C-88.1,10.5-88.3,10.8-88.7,10.8z
	 M-75.7,11h-3.5c-0.3,0-0.6-0.3-0.6-0.6c0-0.3,0.3-0.6,0.6-0.6h3.5c0.3,0,0.6,0.3,0.6,0.6C-75.1,10.7-75.4,11-75.7,11z"/>
<path class="st1" d="M-28.8,23.4h-16.6c-1.6,0-2.9-1.3-2.9-2.9V3.6c0-1.6,1.3-2.9,2.9-2.9h16.6c1.6,0,2.9,1.3,2.9,2.9v16.9
	C-25.8,22-27.1,23.4-28.8,23.4z M-45.4,2.3c-0.7,0-1.3,0.6-1.3,1.3v16.9c0,0.7,0.6,1.3,1.3,1.3h16.6c0.7,0,1.3-0.6,1.3-1.3V3.6
	c0-0.7-0.6-1.3-1.3-1.3C-28.8,2.3-45.4,2.3-45.4,2.3z"/>
<path class="st1" d="M-43.9,6.3c0,0.5,0.4,0.9,0.9,0.9c0.5,0,0.9-0.4,0.9-0.9c0-0.5-0.4-0.9-0.9-0.9S-43.9,5.8-43.9,6.3z M-30.1,7.1
	h-10.7c-0.5,0-0.8-0.4-0.8-0.8c0-0.5,0.4-0.8,0.8-0.8h10.7c0.5,0,0.8,0.4,0.8,0.8S-29.6,7.1-30.1,7.1z M-43.9,11.9
	c0,0.5,0.4,0.9,0.9,0.9c0.5,0,0.9-0.4,0.9-0.9c0-0.5-0.4-0.9-0.9-0.9C-43.5,11-43.9,11.4-43.9,11.9z M-30.1,12.8h-10.7
	c-0.5,0-0.8-0.4-0.8-0.8c0-0.5,0.4-0.8,0.8-0.8h10.7c0.5,0,0.8,0.4,0.8,0.8C-29.3,12.4-29.6,12.8-30.1,12.8z M-43.9,17.6
	c0,0.5,0.4,0.9,0.9,0.9c0.5,0,0.9-0.4,0.9-0.9c0-0.5-0.4-0.9-0.9-0.9S-43.9,17.1-43.9,17.6z M-30.1,18.4h-10.7
	c-0.5,0-0.8-0.4-0.8-0.8c0-0.5,0.4-0.8,0.8-0.8h10.7c0.5,0,0.8,0.4,0.8,0.8C-29.3,18-29.6,18.4-30.1,18.4z"/>
<path class="st1" d="M19.9,21H4c-2,0-3.6-1.4-3.6-3.2V8.9c0-0.4,0.3-0.6,0.7-0.6s0.7,0.3,0.7,0.6v8.9c0,1.1,1,1.9,2.2,1.9h15.9
	c1.2,0,2.2-0.9,2.2-1.9V8.9c0-0.4,0.3-0.6,0.7-0.6c0.4,0,0.7,0.3,0.7,0.6v8.9C23.5,19.6,21.9,21,19.9,21L19.9,21z"/>
<path class="st1" d="M12,14.1l-2.6-2.3c0.7-0.3,1.1-1,1.1-1.7V7h2.9v3.2c0,0.7,0.5,1.3,1.1,1.7L12,14.1z M12,15.7
	c0.2,0,0.4-0.1,0.5-0.2l4.7-4.2c0.3-0.2,0.2-0.5-0.2-0.5h-1.4c-0.4,0-0.7-0.3-0.7-0.6V6.3c0-0.4-0.3-0.6-0.7-0.6H9.8
	C9.4,5.7,9.1,6,9.1,6.3v3.8c0,0.4-0.3,0.6-0.7,0.6H6.9c-0.4,0-0.5,0.2-0.2,0.5l4.7,4.2C11.6,15.6,11.8,15.7,12,15.7z M9.1,3.8
	c0-0.4,0.3-0.6,0.7-0.6c0.4,0,0.7,0.3,0.7,0.6c0,0.4-0.3,0.6-0.7,0.6c0,0,0,0,0,0C9.4,4.4,9.1,4.1,9.1,3.8C9.1,3.8,9.1,3.8,9.1,3.8z
	 M13.4,3.8c0-0.4,0.3-0.6,0.7-0.6c0.4,0,0.7,0.3,0.7,0.6c0,0.4-0.3,0.6-0.7,0.6c0,0,0,0,0,0C13.7,4.4,13.4,4.1,13.4,3.8
	C13.4,3.8,13.4,3.8,13.4,3.8z"/>
<path class="st1" d="M9.8,3.2h4.3v1.3H9.8V3.2z"/>
</svg>
