<?xml version="1.0" encoding="utf-8"?>
<!-- Generator: Adobe Illustrator 23.0.1, SVG Export Plug-In . SVG Version: 6.00 Build 0)  -->
<svg version="1.1" id="图层_1" xmlns="http://www.w3.org/2000/svg" xmlns:xlink="http://www.w3.org/1999/xlink" x="0px" y="0px"
	 viewBox="0 0 24 24" style="enable-background:new 0 0 24 24;" xml:space="preserve">
<style type="text/css">
	.st0{fill:#FF8500;}
	.st1{fill:#666666;}
</style>
<path class="st0" d="M-183.7,4.5h5.2c0.4,0,0.6,0.2,0.6,0.6v5.2c0,0.4-0.2,0.6-0.6,0.6h-5.2c-0.4,0-0.6-0.2-0.6-0.6V5.1
	C-184.3,4.7-184.1,4.5-183.7,4.5z"/>
<path class="st0" d="M-176,4.5h5.2c0.4,0,0.6,0.2,0.6,0.6v5.2c0,0.4-0.2,0.6-0.6,0.6h-5.2c-0.4,0-0.6-0.2-0.6-0.6V5.1
	C-176.6,4.7-176.4,4.5-176,4.5z"/>
<path class="st0" d="M-183.7,12.2h5.2c0.4,0,0.6,0.2,0.6,0.6V18c0,0.4-0.2,0.6-0.6,0.6h-5.2c-0.4,0-0.6-0.2-0.6-0.6v-5.2
	C-184.3,12.4-184.1,12.2-183.7,12.2z"/>
<path class="st0" d="M-173.1,11.4l3.6,3.6c0.3,0.3,0.3,0.6,0,0.8l-3.6,3.6c-0.3,0.3-0.6,0.3-0.8,0l-3.6-3.6c-0.3-0.3-0.3-0.6,0-0.8
	l3.6-3.6C-173.7,11.1-173.4,11.1-173.1,11.4z"/>
<path class="st0" d="M-142.9,4.4c-3,0-5.4,2.4-5.4,5.3c0,0,0,0.1,0,0.1c0,2.5,3.6,7.5,5,9.5c0.2,0.2,0.5,0.2,0.7,0c0,0,0,0,0,0
	c1.4-1.9,5-7,5-9.5l0-0.1C-137.5,6.8-139.9,4.4-142.9,4.4z M-142.9,12.2c-1.4,0-2.6-1.1-2.6-2.6s1.2-2.6,2.6-2.6
	c1.4,0,2.6,1.1,2.6,2.6S-141.4,12.2-142.9,12.2z"/>
<path class="st1" d="M-86.5,7.6h6.3c0.4,0,0.8-0.4,0.8-0.8c0-0.4-0.4-0.8-0.8-0.8h-6.3c-0.4,0-0.8,0.4-0.8,0.8
	C-87.2,7.2-86.9,7.6-86.5,7.6z M-86.5,12.6h8.3c0.4,0,0.8-0.4,0.8-0.8c0-0.4-0.3-0.8-0.8-0.8c0,0,0,0,0,0h-8.3
	c-0.4,0-0.8,0.4-0.8,0.8C-87.2,12.2-86.9,12.5-86.5,12.6z M-86.5,17.5h6.3c0.4,0,0.8-0.4,0.8-0.8c0-0.4-0.4-0.8-0.8-0.8h-6.3
	c-0.4,0-0.8,0.4-0.8,0.8C-87.2,17.1-86.9,17.4-86.5,17.5z M-95.1,7.6h5.3c0.4,0,0.8-0.4,0.8-0.8c0-0.4-0.4-0.8-0.8-0.8h-5.3
	c-0.4,0-0.8,0.4-0.8,0.8C-95.9,7.2-95.5,7.6-95.1,7.6L-95.1,7.6z M-88.9,17.3c0-0.4-0.4-0.8-0.8-0.8h-5.4c-0.4,0-0.8,0.4-0.8,0.8
	c0,0.4,0.4,0.8,0.8,0.8h5.3C-89.3,18-88.9,17.7-88.9,17.3z"/>
<path class="st1" d="M-77.2,0.8h-12.5c-1.9,0-3.4,1.5-3.4,3.4c0,0,0,0,0,0c0,0.4,0.4,0.8,0.8,0.8c0.4,0,0.8-0.4,0.8-0.8
	c0-1,0.8-1.8,1.8-1.8h12.5c1,0,1.8,0.8,1.8,1.8v15.6c0,1-0.8,1.8-1.8,1.8h-12.5c-1,0-1.8-0.8-1.8-1.8c0-0.4-0.4-0.8-0.8-0.8
	c-0.4,0-0.8,0.4-0.8,0.8c0,1.9,1.5,3.4,3.4,3.4c0,0,0,0,0,0h12.5c1.9,0,3.4-1.5,3.4-3.4c0,0,0,0,0,0V4.2
	C-73.9,2.3-75.4,0.8-77.2,0.8z"/>
<path class="st1" d="M-93.2,9.9v4.2c0,0.4,0.4,0.8,0.8,0.8c0.4,0,0.8-0.4,0.8-0.8V9.9c0-0.4-0.4-0.8-0.8-0.8
	C-92.8,9.2-93.1,9.5-93.2,9.9z"/>
<path class="st1" d="M-32.4,17.1h-3.7c-0.3,0-0.6-0.3-0.6-0.6c0-0.3,0.3-0.6,0.6-0.6h3.2V6c0-0.3-0.3-0.6-0.6-0.6h-9.3
	c-0.3,0-0.6,0.3-0.6,0.6c0,0.3-0.3,0.6-0.6,0.6h-1.4c-0.3,0-0.6-0.3-0.6-0.6c0-0.3,0.2-0.6,0.6-0.6h0.9c0.2-0.7,0.9-1.2,1.6-1.2h9.3
	c1,0,1.7,0.8,1.7,1.8v10.5C-31.8,16.8-32.1,17.1-32.4,17.1z M-40.2,17.1h-2.6c-1,0-1.7-0.8-1.7-1.8c0-0.3,0.3-0.6,0.6-0.6
	s0.6,0.3,0.6,0.6s0.3,0.6,0.6,0.6h2.6c0.3,0,0.6,0.3,0.6,0.6C-39.6,16.8-39.9,17.1-40.2,17.1z"/>
<path class="st1" d="M-26,17.1h-0.8c-0.3,0-0.6-0.3-0.6-0.6c0-0.3,0.3-0.6,0.6-0.6h0.8v-3.6l-2.2-3.3h-3.6v7h0.9
	c0.3,0,0.6,0.3,0.6,0.6c0,0.3-0.3,0.6-0.6,0.6h-1.5c-0.3,0-0.6-0.3-0.6-0.6V8.4c0-0.3,0.3-0.6,0.6-0.6h4.1c0.4,0,0.7,0.2,1,0.5
	l2.2,3.3c0.1,0.2,0.2,0.4,0.2,0.7v3.7C-24.8,16.5-25.4,17.1-26,17.1z M-38.1,19.1c-1.4,0-2.6-1.2-2.6-2.6c0-1.4,1.2-2.6,2.6-2.6
	s2.6,1.2,2.6,2.6C-35.5,17.9-36.7,19.1-38.1,19.1z M-38.1,15.1c-0.8,0-1.5,0.7-1.5,1.5s0.7,1.5,1.5,1.5c0.8,0,1.5-0.7,1.5-1.5
	C-36.7,15.7-37.3,15.1-38.1,15.1z"/>
<path class="st1" d="M-28.8,19.1c-1.4,0-2.6-1.2-2.6-2.6c0-1.4,1.2-2.6,2.6-2.6c1.4,0,2.6,1.2,2.6,2.6
	C-26.2,17.9-27.4,19.1-28.8,19.1z M-28.8,15.1c-0.8,0-1.5,0.7-1.5,1.5s0.7,1.5,1.5,1.5c0.8,0,1.5-0.7,1.5-1.5S-28,15.1-28.8,15.1z
	 M-42.1,8.7h-2.7c-0.3,0-0.6-0.3-0.6-0.6c0-0.3,0.3-0.6,0.6-0.6h2.7c0.3,0,0.6,0.3,0.6,0.6C-41.6,8.4-41.8,8.7-42.1,8.7z
	 M-43.4,13.3h-2.7c-0.3,0-0.6-0.3-0.6-0.6c0-0.3,0.3-0.6,0.6-0.6h2.7c0.3,0,0.6,0.3,0.6,0.6C-42.8,13.1-43.1,13.3-43.4,13.3z
	 M-39.6,10.8h-7.9c-0.3,0-0.6-0.3-0.6-0.6c0-0.3,0.3-0.6,0.6-0.6h7.9c0.3,0,0.6,0.3,0.6,0.6C-39,10.5-39.3,10.8-39.6,10.8z
	 M-26.6,11h-3.5c-0.3,0-0.6-0.3-0.6-0.6c0-0.3,0.3-0.6,0.6-0.6h3.5c0.3,0,0.6,0.3,0.6,0.6C-26,10.7-26.3,11-26.6,11z"/>
<path class="st1" d="M20.3,23.4H3.7c-1.6,0-2.9-1.3-2.9-2.9V3.6c0-1.6,1.3-2.9,2.9-2.9h16.6c1.6,0,2.9,1.3,2.9,2.9v16.9
	C23.2,22,21.9,23.4,20.3,23.4z M3.7,2.3C3,2.3,2.4,2.9,2.4,3.6v16.9c0,0.7,0.6,1.3,1.3,1.3h16.6c0.7,0,1.3-0.6,1.3-1.3V3.6
	c0-0.7-0.6-1.3-1.3-1.3C20.3,2.3,3.7,2.3,3.7,2.3z"/>
<path class="st1" d="M5.1,6.3c0,0.5,0.4,0.9,0.9,0.9c0.5,0,0.9-0.4,0.9-0.9c0-0.5-0.4-0.9-0.9-0.9S5.1,5.8,5.1,6.3z M19,7.1H8.3
	c-0.5,0-0.8-0.4-0.8-0.8c0-0.5,0.4-0.8,0.8-0.8H19c0.5,0,0.8,0.4,0.8,0.8S19.4,7.1,19,7.1z M5.1,11.9c0,0.5,0.4,0.9,0.9,0.9
	c0.5,0,0.9-0.4,0.9-0.9C6.9,11.4,6.5,11,6,11C5.5,11,5.1,11.4,5.1,11.9z M19,12.8H8.3c-0.5,0-0.8-0.4-0.8-0.8c0-0.5,0.4-0.8,0.8-0.8
	H19c0.5,0,0.8,0.4,0.8,0.8C19.8,12.4,19.4,12.8,19,12.8z M5.1,17.6c0,0.5,0.4,0.9,0.9,0.9c0.5,0,0.9-0.4,0.9-0.9
	c0-0.5-0.4-0.9-0.9-0.9S5.1,17.1,5.1,17.6z M19,18.4H8.3c-0.5,0-0.8-0.4-0.8-0.8c0-0.5,0.4-0.8,0.8-0.8H19c0.5,0,0.8,0.4,0.8,0.8
	C19.8,18,19.4,18.4,19,18.4z"/>
</svg>
